<svg width="24" height="24" viewBox="0 0 24 24" fill="none" xmlns="http://www.w3.org/2000/svg">
<rect width="24" height="24" fill="white"/>
<path d="M9.40288 17.887H3V15.1232M9.40288 17.887V20.1748H7.29929H16.2971H14.1167V17.887M9.40288 17.887H14.1167M14.1167 17.887H20.5196V15.1232M3 15.1232V5.9104H20.5196V15.1232M3 15.1232H20.5196" stroke="black" stroke-width="0.69161"/>
<path d="M13.5917 8L14.2273 8.25421L13.4011 8.74675V9.47761L14.0366 9.84305L14.8469 9.3664L14.8787 9.71594L14.6562 10.272L14.2908 10.6692L13.7665 10.9235H13.0674L10.0804 13.8787L9.25421 13.8151L9 13.4974V12.8301L11.9552 9.81127L11.9076 9.42995L12.0506 8.85797L12.4319 8.33365L12.9562 8.04766L13.5917 8Z" stroke="black" stroke-width="0.518707"/>
<path d="M19.928 4.48193L20.4399 4.25668V3.82666H21.1361L21.1464 4.25668L21.6583 4.50241" stroke="black" stroke-width="0.535333"/>
<path d="M18.9611 5.78664L19.4404 5.03348L19.1133 4.75434L19.5652 4.22474L19.8989 4.49609L20.4182 4.26619" stroke="black" stroke-width="0.535333"/>
<path d="M21.1727 4.25355L21.6717 4.50618L22.004 4.23324L22.4459 4.77126L22.1201 5.05211L22.2551 5.60367" stroke="black" stroke-width="0.535333"/>
<path d="M22.1355 5.09755L22.2541 5.64412L22.6755 5.72991L22.5366 6.41215L22.1131 6.33639L21.7702 6.78901" stroke="black" stroke-width="0.535333"/>
<path d="M22.1017 6.35981L21.7546 6.79836L21.9557 7.17844L21.3404 7.50412L21.1302 7.12884L20.5628 7.15112" stroke="black" stroke-width="0.535333"/>
<circle cx="20.7458" cy="5.78558" r="0.535333" fill="black"/>
</svg>
