<svg width="24" height="24" viewBox="0 0 24 24" fill="none" xmlns="http://www.w3.org/2000/svg">
<rect width="24" height="24" fill="white"/>
<path d="M15 15.6001H20.1153" stroke="white" stroke-width="0.9"/>
<path d="M9.41691 17.3254H2.3999V14.2965M9.41691 17.3254V19.8327H7.11156H16.9724H14.5829V17.3254M9.41691 17.3254H14.5829M14.5829 17.3254H21.5999V14.2965M2.3999 14.2965V4.20007H21.5999V14.2965M2.3999 14.2965H21.5999" stroke="black" stroke-width="0.9"/>
<path d="M12.4464 10.6941H11.4552V10.5648C11.4552 10.3449 11.4802 10.1663 11.5301 10.0291C11.58 9.89193 11.667 9.76663 11.7657 9.65326C11.8643 9.5399 12.009 9.50066 12.3537 9.21492C12.5374 9.06527 12.6741 8.76777 12.6741 8.64305C12.6869 8.31315 12.5933 8.18321 12.4738 8.06364C12.3424 7.94958 12.1222 7.88936 11.9464 7.88936C11.7854 7.88936 11.5495 7.93625 11.4377 8.0364C11.2873 8.13655 11.0596 8.46361 11.107 8.79304L9.97961 8.8029C9.97961 7.89173 10.15 7.65132 10.5534 7.27842C10.944 6.96324 11.2867 6.85376 11.9667 6.85376C12.4867 6.85376 12.9051 6.95693 13.2089 7.16332C13.6217 7.44221 13.9178 7.8077 13.9178 8.49699C13.9178 8.75386 13.8068 9.0232 13.6681 9.24077C13.5616 9.41992 13.3182 9.62591 12.983 9.84597C12.7347 9.99533 12.5966 10.1538 12.5365 10.2638C12.4764 10.3737 12.4464 10.5172 12.4464 10.6941Z" fill="black"/>
<path d="M11.2078 11.5305H12.7387" stroke="black" stroke-width="0.538475"/>
<path d="M12.4464 10.6921H11.4552V10.5629C11.4552 10.3429 11.4802 10.1644 11.5301 10.0272C11.58 9.88998 11.667 9.76468 11.7657 9.65131C11.8643 9.53794 12.009 9.4987 12.3537 9.21297C12.5374 9.06332 12.6741 8.76582 12.6741 8.6411C12.6869 8.3112 12.5933 8.18125 12.4738 8.06169C12.3424 7.94762 12.1222 7.88741 11.9464 7.88741C11.7854 7.88741 11.5495 7.93429 11.4377 8.03445C11.2873 8.1346 11.0596 8.46166 11.107 8.79109L9.97961 8.80094C9.97961 7.88978 10.15 7.64937 10.5534 7.27647C10.944 6.96129 11.2867 6.85181 11.9667 6.85181C12.4867 6.85181 12.9051 6.95497 13.2089 7.16136C13.6217 7.44026 13.9178 7.80574 13.9178 8.49504C13.9178 8.75191 13.8068 9.02124 13.6681 9.23882C13.5616 9.41797 13.3182 9.62395 12.983 9.84402C12.7347 9.99338 12.5966 10.1519 12.5365 10.2618C12.4764 10.3718 12.4464 10.5152 12.4464 10.6921Z" fill="black"/>
<path d="M12.4464 10.6921H11.4552V10.5629C11.4552 10.3429 11.4802 10.1644 11.5301 10.0272C11.58 9.88998 11.667 9.76468 11.7657 9.65131C11.8643 9.53794 12.009 9.4987 12.3537 9.21297C12.5374 9.06332 12.6741 8.76582 12.6741 8.6411C12.6869 8.3112 12.5933 8.18125 12.4738 8.06169C12.3424 7.94762 12.1222 7.88741 11.9464 7.88741C11.7854 7.88741 11.5495 7.93429 11.4377 8.03445C11.2873 8.1346 11.0596 8.46166 11.107 8.79109L9.97961 8.80094C9.97961 7.88978 10.15 7.64937 10.5534 7.27647C10.944 6.96129 11.2867 6.85181 11.9667 6.85181C12.4867 6.85181 12.9051 6.95497 13.2089 7.16136C13.6217 7.44026 13.9178 7.80574 13.9178 8.49504C13.9178 8.75191 13.8068 9.02124 13.6681 9.23882C13.5616 9.41797 13.3182 9.62395 12.983 9.84402C12.7347 9.99338 12.5966 10.1519 12.5365 10.2618C12.4764 10.3718 12.4464 10.5152 12.4464 10.6921Z" fill="black"/>
</svg>
