<svg width="24" height="24" viewBox="0 0 24 24" fill="none" xmlns="http://www.w3.org/2000/svg">
<rect width="24" height="24" fill="white"/>
<path d="M15 15.6001H20.1153" stroke="white" stroke-width="0.9"/>
<path d="M11.1602 10.015H11.0814V10.0047C11.0814 9.98721 11.0834 9.973 11.0873 9.96209C11.0913 9.95117 11.0982 9.94121 11.1061 9.93219C11.1139 9.92317 11.1254 9.92005 11.1529 9.89731C11.1675 9.88541 11.1783 9.86174 11.1783 9.85182C11.1794 9.82557 11.1719 9.81524 11.1624 9.80572C11.152 9.79665 11.1344 9.79186 11.1205 9.79186C11.1076 9.79186 11.0889 9.79559 11.08 9.80356C11.068 9.81152 11.0499 9.83754 11.0537 9.86375L10.964 9.86454C10.964 9.79205 10.9775 9.77292 11.0096 9.74326C11.0407 9.71818 11.068 9.70947 11.1221 9.70947C11.1634 9.70947 11.1967 9.71768 11.2209 9.7341C11.2537 9.75629 11.2773 9.78536 11.2773 9.8402C11.2773 9.86064 11.2685 9.88206 11.2574 9.89937C11.2489 9.91362 11.2296 9.93001 11.2029 9.94752C11.1832 9.9594 11.1722 9.97201 11.1674 9.98076C11.1626 9.9895 11.1602 10.0009 11.1602 10.015Z" fill="black"/>
<path d="M10.9052 10.5582H10.2915V10.2914M10.9052 10.5582V10.7791H10.7036H11.566H11.357V10.5582M10.9052 10.5582H11.357M11.357 10.5582H11.9707V10.2914M10.2915 10.2914V9.4021H11.9707V10.2914M10.2915 10.2914H11.9707" stroke="black" stroke-width="0.067169"/>
<path d="M11.0532 10.061H11.1881" stroke="black" stroke-width="0.0503768"/>
<path d="M2.3999 4.80005H21.5599V14.8754V17.898H14.5575V20.4001H9.40227V17.898H2.3999V14.8754V4.80005Z" fill="black"/>
<path d="M9.40227 17.898H2.3999V14.8754M9.40227 17.898V20.4H7.10173H16.942H14.5575V17.898M9.40227 17.898H14.5575M14.5575 17.898H21.5599V14.8754M2.3999 14.8754V4.80005H21.5599V14.8754M2.3999 14.8754H21.5599" stroke="black" stroke-width="0.738859"/>
<path d="M11.032 12.2869H12.5601" stroke="white" stroke-width="0.537352"/>
<path d="M12.2678 11.4534H11.2787V11.3244C11.2787 11.1049 11.3036 10.9267 11.3534 10.7898C11.4032 10.6529 11.49 10.5279 11.5885 10.4148C11.6869 10.3016 11.8313 10.2625 12.1753 9.97733C12.3586 9.828 12.495 9.53112 12.495 9.40665C12.5078 9.07744 12.4144 8.94777 12.2951 8.82845C12.164 8.71463 11.9442 8.65453 11.7688 8.65453C11.6081 8.65453 11.3728 8.70132 11.2612 8.80127C11.1111 8.90121 10.8838 9.22759 10.9312 9.55633L9.80615 9.56617C9.80615 8.6569 9.97614 8.41699 10.3787 8.04487C10.7686 7.73035 11.1106 7.62109 11.7891 7.62109C12.308 7.62109 12.7255 7.72404 13.0287 7.93C13.4406 8.20832 13.7361 8.57304 13.7361 9.2609C13.7361 9.51724 13.6253 9.78601 13.487 10.0031C13.3806 10.1819 13.1378 10.3875 12.8033 10.6071C12.5555 10.7561 12.4177 10.9143 12.3577 11.024C12.2977 11.1337 12.2678 11.2769 12.2678 11.4534Z" fill="white"/>
<path d="M12.2678 11.4534H11.2787V11.3244C11.2787 11.1049 11.3036 10.9267 11.3534 10.7898C11.4032 10.6529 11.49 10.5279 11.5885 10.4148C11.6869 10.3016 11.8313 10.2625 12.1753 9.97733C12.3586 9.828 12.495 9.53112 12.495 9.40665C12.5078 9.07744 12.4144 8.94777 12.2951 8.82845C12.164 8.71463 11.9442 8.65453 11.7688 8.65453C11.6081 8.65453 11.3728 8.70132 11.2612 8.80127C11.1111 8.90121 10.8838 9.22759 10.9312 9.55633L9.80615 9.56617C9.80615 8.6569 9.97614 8.41699 10.3787 8.04487C10.7686 7.73035 11.1106 7.62109 11.7891 7.62109C12.308 7.62109 12.7255 7.72404 13.0287 7.93C13.4406 8.20832 13.7361 8.57304 13.7361 9.2609C13.7361 9.51724 13.6253 9.78601 13.487 10.0031C13.3806 10.1819 13.1378 10.3875 12.8033 10.6071C12.5555 10.7561 12.4177 10.9143 12.3577 11.024C12.2977 11.1337 12.2678 11.2769 12.2678 11.4534Z" fill="white"/>
<path d="M12.2678 11.4534H11.2787V11.3244C11.2787 11.1049 11.3036 10.9267 11.3534 10.7898C11.4032 10.6529 11.49 10.5279 11.5885 10.4148C11.6869 10.3016 11.8313 10.2625 12.1753 9.97733C12.3586 9.828 12.495 9.53112 12.495 9.40665C12.5078 9.07744 12.4144 8.94777 12.2951 8.82845C12.164 8.71463 11.9442 8.65453 11.7688 8.65453C11.6081 8.65453 11.3728 8.70132 11.2612 8.80127C11.1111 8.90121 10.8838 9.22759 10.9312 9.55633L9.80615 9.56617C9.80615 8.6569 9.97614 8.41699 10.3787 8.04487C10.7686 7.73035 11.1106 7.62109 11.7891 7.62109C12.308 7.62109 12.7255 7.72404 13.0287 7.93C13.4406 8.20832 13.7361 8.57304 13.7361 9.2609C13.7361 9.51724 13.6253 9.78601 13.487 10.0031C13.3806 10.1819 13.1378 10.3875 12.8033 10.6071C12.5555 10.7561 12.4177 10.9143 12.3577 11.024C12.2977 11.1337 12.2678 11.2769 12.2678 11.4534Z" fill="white"/>
<g filter="url(#filter0_d_225_164)">
<line x1="2.53369" y1="14.8569" x2="21.4082" y2="14.8569" stroke="white" stroke-width="0.302261"/>
</g>
<path d="M9.62222 17.5759H2.53369V4.90063H21.4082V17.5759H14.2726M9.62222 17.5759L9.65125 20.3999H7.4007H14.2726M9.62222 17.5759H14.2726M16.561 20.3999H14.2726M14.2726 20.3999V17.5759" stroke="white" stroke-width="0.268676"/>
<defs>
<filter id="filter0_d_225_164" x="0.133691" y="14.7058" width="23.6745" height="5.10225" filterUnits="userSpaceOnUse" color-interpolation-filters="sRGB">
<feFlood flood-opacity="0" result="BackgroundImageFix"/>
<feColorMatrix in="SourceAlpha" type="matrix" values="0 0 0 0 0 0 0 0 0 0 0 0 0 0 0 0 0 0 127 0" result="hardAlpha"/>
<feOffset dy="2.4"/>
<feGaussianBlur stdDeviation="1.2"/>
<feComposite in2="hardAlpha" operator="out"/>
<feColorMatrix type="matrix" values="0 0 0 0 0 0 0 0 0 0 0 0 0 0 0 0 0 0 0.25 0"/>
<feBlend mode="normal" in2="BackgroundImageFix" result="effect1_dropShadow_225_164"/>
<feBlend mode="normal" in="SourceGraphic" in2="effect1_dropShadow_225_164" result="shape"/>
</filter>
</defs>
</svg>
