<svg width="24" height="24" viewBox="0 0 24 24" fill="none" xmlns="http://www.w3.org/2000/svg">
<g clip-path="url(#clip0_266_125)">
<rect width="24" height="24" fill="white"/>
<path d="M8.2312 12.4546V5.69141H19.2572V15.978L20.4811 18.2033H12.493H8.2312V12.4546Z" fill="black" stroke="#070707" stroke-width="0.809555"/>
<g clip-path="url(#clip1_266_125)">
<rect x="2.04951" y="12.2807" width="10.5248" height="6.74724" fill="black" stroke="#F5F5F5" stroke-width="0.218357"/>
<path d="M9.53971 16.6143C10.2688 16.6143 10.8598 16.0248 10.8598 15.2976C10.8598 14.5705 10.2688 13.981 9.53971 13.981C8.81064 13.981 8.2196 14.5705 8.2196 15.2976C8.2196 16.0248 8.81064 16.6143 9.53971 16.6143Z" stroke="white" stroke-width="0.9" stroke-miterlimit="10"/>
<path d="M4.11322 14.9999C4.47954 14.9999 4.77649 14.7037 4.77649 14.3383C4.77649 13.9729 4.47954 13.6768 4.11322 13.6768C3.74691 13.6768 3.44995 13.9729 3.44995 14.3383C3.44995 14.7037 3.74691 14.9999 4.11322 14.9999Z" fill="white"/>
<path d="M5.34193 11.1924H2.88525V11.8379H5.34193V11.1924Z" fill="black"/>
</g>
<mask id="path-6-inside-1_266_125" fill="white">
<path d="M20.9993 4.60303H6.49927V5.30578H20.9993V4.60303Z"/>
</mask>
<path d="M20.9993 4.60303H6.49927V5.30578H20.9993V4.60303Z" fill="black"/>
<path d="M6.49927 4.60303V3.70303H5.59927V4.60303H6.49927ZM20.9993 4.60303H21.8993V3.70303H20.9993V4.60303ZM20.9993 5.30578V6.20578H21.8993V5.30578H20.9993ZM6.49927 5.30578H5.59927V6.20578H6.49927V5.30578ZM6.49927 4.60303V5.50303H20.9993V4.60303V3.70303H6.49927V4.60303ZM20.9993 4.60303H20.0993V5.30578H20.9993H21.8993V4.60303H20.9993ZM20.9993 5.30578V4.40578H6.49927V5.30578V6.20578H20.9993V5.30578ZM6.49927 5.30578H7.39927V4.60303H6.49927H5.59927V5.30578H6.49927Z" fill="black" mask="url(#path-6-inside-1_266_125)"/>
<path d="M15 15.6001H20.1153" stroke="white" stroke-width="0.9"/>
<rect width="24" height="24" transform="translate(0 -0.317383)" fill="white"/>
<path d="M16.4451 16.0544H16.3296V16.0393C16.3296 16.0137 16.3325 15.9929 16.3384 15.9769C16.3442 15.9609 16.3543 15.9463 16.3658 15.9331C16.3773 15.9199 16.3942 15.9153 16.4343 15.882C16.4557 15.8646 16.4716 15.8299 16.4716 15.8154C16.4731 15.777 16.4622 15.7618 16.4483 15.7479C16.433 15.7346 16.4073 15.7276 16.3869 15.7276C16.3681 15.7276 16.3406 15.7331 16.3276 15.7447C16.3101 15.7564 16.2835 15.7945 16.2891 15.8329L16.1577 15.834C16.1577 15.7279 16.1776 15.6999 16.2246 15.6564C16.2701 15.6197 16.31 15.6069 16.3892 15.6069C16.4498 15.6069 16.4986 15.619 16.534 15.643C16.582 15.6755 16.6165 15.7181 16.6165 15.7984C16.6165 15.8283 16.6036 15.8597 16.5875 15.885C16.575 15.9059 16.5467 15.9299 16.5076 15.9556C16.4787 15.973 16.4626 15.9914 16.4556 16.0042C16.4486 16.017 16.4451 16.0338 16.4451 16.0544Z" fill="black"/>
<path d="M10.305 10.5255H9.70581V10.265M10.305 10.5255V10.7411H10.1081H10.9502H10.7461V10.5255M10.305 10.5255H10.7461M10.7461 10.5255H11.3453V10.265M9.70581 10.265V9.39673H11.3453V10.265M9.70581 10.265H11.3453" stroke="black" stroke-width="0.0655793"/>
<path d="M10.4496 10.0398H10.5813" stroke="black" stroke-width="0.0491845"/>
<path d="M2 4.90674H20.7065V14.7436V17.6947H13.8699V20.1375H8.83664V17.6947H2V14.7436V4.90674Z" fill="black"/>
<path d="M8.83664 17.6947H2V14.7436M8.83664 17.6947V20.1375H6.59055H16.1979H13.8699V17.6947M8.83664 17.6947H13.8699M13.8699 17.6947H20.7065V14.7436M2 14.7436V4.90674H20.7065V14.7436M2 14.7436H20.7065" stroke="black" stroke-width="0.721373"/>
<line x1="2.13135" y1="14.7238" x2="20.5591" y2="14.7238" stroke="white" stroke-width="0.295107"/>
<path d="M9.05212 17.3784H2.13135V5.00317H20.5591V17.3784H13.5925M9.05212 17.3784L9.08046 20.1356H6.88317H13.5925M9.05212 17.3784H13.5925M15.8266 20.1356H13.5925M13.5925 20.1356V17.3784" stroke="white" stroke-width="0.262317"/>
<path d="M13.1798 6.74585L13.8584 7.01728L12.9762 7.54319V8.32357L13.6548 8.71375L14.52 8.20481L14.5539 8.57804L14.3164 9.1718L13.9262 9.59592L13.3664 9.86735H12.6199L9.43058 13.0228L8.54841 12.9549L8.27698 12.6156V11.9031L11.4324 8.67982L11.3815 8.27267L11.5342 7.66194L11.9414 7.10211L12.5012 6.79674L13.1798 6.74585Z" fill="white"/>
<path d="M20.052 3.36153L20.5816 3.12849V2.68359H21.3019L21.3125 3.12849L21.8422 3.38272" stroke="black" stroke-width="0.553847"/>
<path d="M19.0518 4.71461L19.5476 3.93541L19.2091 3.64661L19.6767 3.09869L20.022 3.37943L20.5592 3.14158" stroke="black" stroke-width="0.553847"/>
<path d="M21.3395 3.1339L21.8558 3.39527L22.1996 3.11289L22.6567 3.66951L22.3197 3.96008L22.4594 4.53072" stroke="black" stroke-width="0.553847"/>
<path d="M22.3357 4.0022L22.4584 4.56769L22.8943 4.65644L22.7506 5.36227L22.3126 5.28389L21.9578 5.75217" stroke="black" stroke-width="0.553847"/>
<path d="M22.3009 5.3095L21.9418 5.76323L22.1499 6.15645L21.5133 6.49339L21.2958 6.10513L20.7088 6.12819" stroke="black" stroke-width="0.553847"/>
<circle cx="20.8981" cy="4.71449" r="0.553847" fill="black"/>
</g>
<defs>
<clipPath id="clip0_266_125">
<rect width="24" height="24" fill="white"/>
</clipPath>
<clipPath id="clip1_266_125">
<rect width="10.3065" height="7.72985" fill="white" transform="translate(2.40015 11.1943)"/>
</clipPath>
</defs>
</svg>
