<svg width="24" height="24" viewBox="0 0 24 24" fill="none" xmlns="http://www.w3.org/2000/svg">
<rect width="24" height="24" fill="white"/>
<path d="M15 15.5999H20.1153" stroke="white" stroke-width="0.9"/>
<rect x="4.58203" y="9.07104" width="11.5613" height="7.37326" fill="black"/>
<path d="M12.8595 13.8467C13.6773 13.8467 14.3403 13.181 14.3403 12.3598C14.3403 11.5385 13.6773 10.8728 12.8595 10.8728C12.0417 10.8728 11.3787 11.5385 11.3787 12.3598C11.3787 13.181 12.0417 13.8467 12.8595 13.8467Z" stroke="white" stroke-width="0.9" stroke-miterlimit="10"/>
<path d="M6.77454 12.0177C7.18546 12.0177 7.51857 11.6832 7.51857 11.2705C7.51857 10.8579 7.18546 10.5234 6.77454 10.5234C6.36363 10.5234 6.03052 10.8579 6.03052 11.2705C6.03052 11.6832 6.36363 12.0177 6.77454 12.0177Z" fill="white"/>
<path d="M7.85632 7.71362V9.22212V9.48321H9.27199V8.46787" stroke="black" stroke-width="0.471889"/>
<path d="M8.99016 7.70874H6.23438V8.43487H8.99016V7.70874Z" fill="black"/>
<path d="M2.3999 5.52983V2.40356H8.85888L11.5133 3.55379L13.4303 7.32337V9.3714H12.1031L12.3096 9.59987V10.2487L11.8967 10.6026H11.3068L8.85888 8.15471L6.49944 7.12245L5.88008 6.23766L2.3999 5.52983Z" fill="black"/>
<path d="M11.0414 5.02845V5.61831L10.6874 6.19342M10.6874 6.19342L10.0976 7.15195L11.8967 9.14292M10.6874 6.19342L11.8967 7.76577V9.14292M11.8967 9.14292L12.1031 9.3714M12.1031 9.3714L12.3096 9.59987V10.2487L11.8967 10.6026H11.3068L8.85888 8.15471L6.49944 7.12245L5.88008 6.23766L2.3999 5.52983V2.40356H8.85888L11.5133 3.55379L13.4303 7.32337V9.3714H12.1031Z" stroke="black" stroke-width="0.471889"/>
<path d="M19.7114 16.4421V15.7932H21.599V20.9545H19.7114V20.2762H17.116L15.199 21.6328L6.26257 19.2734L6.49852 18.5951L7.02939 18.3001H13.9603V17.8872L15.2874 16.4421H19.7114Z" fill="black"/>
<path d="M10.9538 4.7963V5.35667L10.6755 5.79907M10.6755 5.79907L9.80353 7.18524L12.0745 9.69215V10.164L11.8091 10.3705H11.3962L9.00722 7.98155L6.64777 6.9493L5.99893 6.0645L2.63672 5.35667V2.64331H8.83026L11.3372 3.73455L13.1952 7.39169V8.80562H12.1335V8.69956V7.68662L10.6755 5.79907Z" stroke="white" stroke-width="0.48"/>
<path d="M21.1536 16.2681V20.5366H20.1292V19.8579H16.9524L16.8909 19.9019L15.095 21.1636L6.89087 18.9858L6.90649 18.9341L7.15063 18.8032L14.1985 18.7749L14.4377 18.7739V18.0962L15.4836 16.9458H20.1292V16.2681H21.1536Z" stroke="white" stroke-width="0.48"/>
</svg>
