<svg width="24" height="24" viewBox="0 0 24 24" fill="none" xmlns="http://www.w3.org/2000/svg">
<rect width="24" height="24" fill="white"/>
<path d="M15 15.6001H20.1153" stroke="white" stroke-width="0.9"/>
<path d="M10.6848 8.58984H8.72095V9.10729H10.6848V8.58984Z" fill="black"/>
<path d="M15.6036 10.0713V14.2752H8.3944V10.0713H15.6036ZM16.1184 9.5564H7.87964V14.7901H16.1184V9.5564Z" fill="black"/>
<path d="M13.7794 12.9445C14.3622 12.9445 14.8346 12.4719 14.8346 11.889C14.8346 11.3061 14.3622 10.8335 13.7794 10.8335C13.1966 10.8335 12.7241 11.3061 12.7241 11.889C12.7241 12.4719 13.1966 12.9445 13.7794 12.9445Z" stroke="black" stroke-width="0.662046" stroke-miterlimit="10"/>
<path d="M9.44109 11.6505C9.73392 11.6505 9.9713 11.4131 9.9713 11.1202C9.9713 10.8273 9.73392 10.5898 9.44109 10.5898C9.14827 10.5898 8.91089 10.8273 8.91089 11.1202C8.91089 11.4131 9.14827 11.6505 9.44109 11.6505Z" fill="black"/>
<path d="M20.2549 14.9692V14.5068H21.6V18.1849H20.2549V17.7015M20.2549 14.9692H17.1023L16.1565 15.9991V16.2933M20.2549 14.9692V17.7015M17.6067 15.9991L16.766 16.7977H16.4087L16.1565 16.5875V16.2933M16.1565 16.2933H11.2175L10.8392 16.5035L10.671 16.9869L17.0393 18.6683L18.4054 17.7015H20.2549" stroke="black" stroke-width="0.662046"/>
<path d="M3.74498 9.09548L3.74498 9.55786L2.39987 9.55786L2.39987 5.87984L3.74498 5.87984L3.74498 6.36324M3.74498 9.09548L6.89757 9.09548L7.84335 8.06563L7.84335 7.77139M3.74498 9.09548L3.74498 6.36324M6.39316 8.06563L7.23385 7.26698L7.59114 7.26698L7.84335 7.47715L7.84335 7.77139M7.84335 7.77139L12.7824 7.77139L13.1607 7.56122L13.3289 7.07782L6.96062 5.39644L5.5945 6.36324L3.74498 6.36324" stroke="black" stroke-width="0.662046"/>
</svg>
