<svg width="24" height="24" viewBox="0 0 24 24" fill="none" xmlns="http://www.w3.org/2000/svg">
<rect width="24" height="24" fill="white"/>
<path d="M15 15.6001H20.1153" stroke="white" stroke-width="0.9"/>
<rect x="8.06006" y="9.40552" width="8.53334" height="5.44218" fill="black"/>
<path d="M14.1711 12.9297C14.7748 12.9297 15.2641 12.4383 15.2641 11.8321C15.2641 11.226 14.7748 10.7346 14.1711 10.7346C13.5675 10.7346 13.0781 11.226 13.0781 11.8321C13.0781 12.4383 13.5675 12.9297 14.1711 12.9297Z" stroke="white" stroke-width="0.261225" stroke-miterlimit="10"/>
<path d="M9.67807 11.5807C9.98136 11.5807 10.2272 11.3338 10.2272 11.0292C10.2272 10.7247 9.98136 10.4778 9.67807 10.4778C9.37477 10.4778 9.12891 10.7247 9.12891 11.0292C9.12891 11.3338 9.37477 11.5807 9.67807 11.5807Z" fill="white"/>
<path d="M11.3128 8.39917H9.27881V8.93512H11.3128V8.39917Z" fill="black"/>
<path d="M20.2063 14.8468V14.3679H21.5995V18.1774H20.2063V17.6768H18.2907L16.8757 18.6781L10.2798 16.9366L10.4539 16.4359L10.8458 16.2183H15.9614V15.9135L16.941 14.8468H20.2063Z" fill="black"/>
<path d="M21.3596 14.6292V17.9602H20.4231V17.4592H18.1975L18.175 17.4749L16.8137 18.4309L10.6282 16.7883L10.678 16.6262L10.9114 16.5002L16.135 16.4797H16.2219V16.0334L17.0452 15.1301H20.4231V14.6292H21.3596Z" stroke="white" stroke-width="0.17415"/>
<path d="M3.79368 9.23373L3.79368 9.71265L2.40048 9.71265L2.40048 5.90312L3.79368 5.90312L3.79368 6.4038L5.70932 6.4038L7.12429 5.40244L13.7202 7.14394L13.5461 7.64462L13.1542 7.86231L8.03858 7.8623L8.03858 8.16707L7.05899 9.23373L3.79368 9.23373Z" fill="black"/>
<path d="M2.6405 9.44678L2.6405 6.11572L3.57703 6.11572L3.57703 6.6167L5.80261 6.6167L5.82507 6.60107L7.1864 5.64502L13.3719 7.2876L13.3221 7.44971L13.0887 7.57568L7.86511 7.59619L7.7782 7.59619L7.7782 8.04248L6.95496 8.9458L3.57703 8.9458L3.57703 9.44678L2.6405 9.44678Z" stroke="white" stroke-width="0.17415"/>
</svg>
