<svg width="24" height="24" viewBox="0 0 24 24" fill="none" xmlns="http://www.w3.org/2000/svg">
<rect width="24" height="24" fill="white"/>
<path d="M15 15.6001H20.1153" stroke="white" stroke-width="0.9"/>
<path d="M8.28516 8.25195V9.73766V9.99481H9.57087V8.99481" stroke="black" stroke-width="0.457141"/>
<path d="M9.3845 8.25195H6.71484V8.95539H9.3845V8.25195Z" fill="black"/>
<path d="M16.0712 10.2637V15.9786H6.27082V10.2637H16.0712ZM16.771 9.56372H5.57104V16.6785H16.771V9.56372Z" fill="black"/>
<path d="M13.5917 14.1722C14.3839 14.1722 15.0262 13.5298 15.0262 12.7374C15.0262 11.9449 14.3839 11.3025 13.5917 11.3025C12.7994 11.3025 12.1571 11.9449 12.1571 12.7374C12.1571 13.5298 12.7994 14.1722 13.5917 14.1722Z" stroke="black" stroke-width="0.9" stroke-miterlimit="10"/>
<path d="M7.69563 12.4111C8.0937 12.4111 8.4164 12.0883 8.4164 11.6902C8.4164 11.292 8.0937 10.9692 7.69563 10.9692C7.29755 10.9692 6.97485 11.292 6.97485 11.6902C6.97485 12.0883 7.29755 12.4111 7.69563 12.4111Z" fill="black"/>
<path d="M3 6.14453V3.11597H9.25712L11.8285 4.23025L13.6857 7.88202V9.82386H13.0353H12.415L12.6 10.0874V10.7159L12.2 11.0588H11.6285L9.25712 8.68738L6.97142 7.68738L6.37142 6.83024L3 6.14453Z" fill="#F5F5F5"/>
<path d="M11.3714 5.65882V6.23024L11.0285 6.78738M11.0285 6.78738L10.4571 7.71595L12.2 9.59878M11.0285 6.78738L12.2 8.31059V9.59878M12.2 9.59878L12.415 9.82386M12.415 9.82386L12.6 10.0874V10.7159L12.2 11.0588H11.6285L9.25712 8.68738L6.97142 7.68738L6.37142 6.83024L3 6.14453V3.11597H9.25712L11.8285 4.23025L13.6857 7.88202V9.82386H13.0353H12.415Z" stroke="black" stroke-width="0.9"/>
<path d="M19.7715 16.7152V16.0867H21.6V21.0867H19.7715V20.4295M19.7715 16.7152H15.4858L14.2 18.1152V18.5152M19.7715 16.7152V20.4295M16.1715 18.1152L15.0286 19.2009H14.5429L14.2 18.9152V18.5152M14.2 18.5152H7.48577L6.97149 18.8009L6.74292 19.4581L15.4 21.7438L17.2572 20.4295H19.7715" stroke="black" stroke-width="0.9"/>
</svg>
