<svg width="24" height="24" viewBox="0 0 24 24" fill="none" xmlns="http://www.w3.org/2000/svg">
<path d="M9.00599 16.5421L8.95799 15.8041L8.41199 14.3641C7.57199 13.4101 7.10999 12.1921 7.10999 10.9201C7.10999 8.04605 9.44999 5.70605 12.324 5.70605C15.198 5.70605 17.538 8.04605 17.538 10.9201C17.538 12.2221 17.058 13.4581 16.188 14.4181L15.93 15.6361L15.918 16.4881L8.99999 16.5361L9.00599 16.5421ZM12.324 6.90605C10.11 6.90605 8.30999 8.70605 8.30999 10.9201C8.30999 11.9281 8.68799 12.8941 9.37199 13.6381L9.44999 13.7221L10.062 15.3301L14.784 15.2941L15.09 13.8361L15.21 13.7101C15.942 12.9541 16.344 11.9641 16.344 10.9141C16.344 8.70005 14.544 6.90005 12.33 6.90005L12.324 6.90605Z" fill="black"/>
<path d="M15.066 17.556H9.71399V18.756H15.066V17.556Z" fill="black"/>
<path d="M14.592 15.816H10.26V10.5H14.592V15.816ZM11.454 14.616H13.386V11.7H11.454V14.616Z" fill="black"/>
<path d="M11.52 9.68395H13.344L12.432 8.54395L11.52 9.68395Z" fill="black"/>
<path d="M14.28 10.134H10.584L12.432 7.82397L14.28 10.134Z" fill="black"/>
<path d="M6.77398 10.578H4.90198V11.478H6.77398V10.578Z" fill="black"/>
<path d="M19.74 10.512H17.868V11.412H19.74V10.512Z" fill="black"/>
<path d="M12.774 3.49194H11.874V5.36394H12.774V3.49194Z" fill="black"/>
<path d="M7.33591 5.41572L6.6994 6.052L8.02287 7.37594L8.65938 6.73965L7.33591 5.41572Z" fill="black"/>
<path d="M7.54459 13.9005L6.22089 15.2242L6.85728 15.8606L8.18099 14.5369L7.54459 13.9005Z" fill="black"/>
<path d="M17.3481 5.4711L16.0244 6.7948L16.6608 7.4312L17.9845 6.10749L17.3481 5.4711Z" fill="black"/>
<path d="M17.0345 13.9382L16.3981 14.5746L17.7218 15.8983L18.3582 15.2619L17.0345 13.9382Z" fill="black"/>
<path d="M12.828 11.0341H11.928V15.4681H12.828V11.0341Z" fill="black"/>
<path d="M10.686 19.644H14.226L12.984 21.138H11.82L10.686 19.644Z" fill="black"/>
</svg>
