<svg width="24" height="24" viewBox="0 0 24 24" fill="none" xmlns="http://www.w3.org/2000/svg">
<path d="M14.076 4.36803V16.368H4.476V4.36803H14.076ZM15.276 3.16803H3.276V17.568H15.276V3.16803Z" fill="black"/>
<path d="M20.676 20.832H7.47601V17.01H8.67601V19.632H19.476V6.43199H14.622V5.23199H20.676V20.832Z" fill="black"/>
<path d="M11.688 6.76799V9.16799H6.88799V6.76799H11.688ZM12.888 5.56799H5.68799V10.368H12.888V5.56799Z" fill="black"/>
<path d="M12.876 11.574H5.67603V12.774H12.876V11.574Z" fill="black"/>
<path d="M12.876 13.962H5.67603V15.162H12.876V13.962Z" fill="black"/>
<path d="M14.8049 16.4575L8.41956 19.1038L8.87897 20.2123L15.2644 17.5661L14.8049 16.4575Z" fill="black"/>
</svg>
