<svg width="24" height="24" viewBox="0 0 24 24" fill="none" xmlns="http://www.w3.org/2000/svg">
<path d="M4.96198 4.00195H11.724C12.432 4.00195 13.104 4.00195 13.746 4.02595C16.974 4.13395 18.702 5.36395 18.702 7.83595C18.702 9.83995 17.364 10.914 15.666 11.28C17.412 11.604 19.176 12.528 19.176 15.006C19.176 17.742 17.472 18.864 15.108 19.248C14.442 19.356 13.62 19.398 12.804 19.398H4.96198V4.00195ZM11.49 9.94195C12.63 9.94195 13.194 9.68395 13.194 8.77795C13.194 7.95595 12.612 7.76395 11.664 7.76395H10.458V9.94195H11.49ZM11.382 15.654C12.672 15.654 13.428 15.462 13.428 14.406C13.428 13.35 12.672 13.224 11.424 13.224H10.452V15.66H11.376L11.382 15.654Z" fill="black"/>
</svg>
