<svg width="24" height="24" viewBox="0 0 24 24" fill="none" xmlns="http://www.w3.org/2000/svg">
<path d="M12.024 5.02795L13.926 9.43195L11.724 10.386L9.82196 5.98195L12.024 5.02795ZM12.648 3.44995L8.24396 5.35195L11.1 11.958L15.504 10.056L12.648 3.44995Z" fill="black"/>
<path d="M11.934 1.80005L7.52399 3.70805L8.00399 4.80605L12.408 2.90405L11.934 1.80005Z" fill="black"/>
<path d="M15.444 10.74L11.634 12.39L14.97 14.868L15.444 10.74Z" fill="black"/>
<path d="M13.038 21.7379C12.024 21.7379 11.208 20.9159 11.208 19.9079C11.208 18.8999 12.03 18.0779 13.038 18.0779L14.964 18.0899C15.978 18.0899 16.794 17.2679 16.794 16.2599C16.794 15.2519 15.972 14.4299 14.964 14.4299" stroke="#231F20" stroke-width="1.5" stroke-miterlimit="10"/>
</svg>
