<svg width="24" height="24" viewBox="0 0 24 24" fill="none" xmlns="http://www.w3.org/2000/svg">
<path d="M5.66402 19.668C3.90002 19.668 2.46002 18.234 2.46002 16.464V6.936H8.26202V8.136H3.66002V16.464C3.66002 17.568 4.56002 18.468 5.66402 18.468C6.76802 18.468 7.66802 17.568 7.66802 16.464H8.86802C8.86802 18.228 7.43402 19.668 5.66402 19.668Z" fill="black"/>
<path d="M17.82 19.668H6.19202V18.462H17.82C19.206 18.462 20.334 17.334 20.34 15.948V6.99601H8.87402V16.47H7.66802V5.79001L21.546 5.79601V15.948C21.546 18 19.872 19.662 17.826 19.662L17.82 19.668Z" fill="black"/>
<path d="M11.406 11.844H14.208V15.978H11.406V11.844ZM10.206 10.644V17.178H15.408V10.644H10.206Z" fill="black"/>
<path d="M19.182 8.23801H10.194V9.43801H19.182V8.23801Z" fill="black"/>
<path d="M19.164 10.632H16.89V11.832H19.164V10.632Z" fill="black"/>
<path d="M19.164 13.038H16.89V14.238H19.164V13.038Z" fill="black"/>
<path d="M19.164 15.444H16.89V16.644H19.164V15.444Z" fill="black"/>
</svg>
