<svg width="24" height="24" viewBox="0 0 24 24" fill="none" xmlns="http://www.w3.org/2000/svg">
<path d="M9.126 17.31C7.398 17.31 6 15.906 6 14.184C6 12.462 7.404 11.058 9.126 11.058C10.848 11.058 12.252 12.462 12.252 14.184C12.252 15.906 10.848 17.31 9.126 17.31ZM9.126 12.252C8.064 12.252 7.2 13.116 7.2 14.178C7.2 15.24 8.064 16.104 9.126 16.104C10.188 16.104 11.052 15.24 11.052 14.178C11.052 13.116 10.188 12.252 9.126 12.252Z" fill="black"/>
<path d="M12.012 11.004L8.33398 4.67401L15.654 4.65601L12.012 11.004ZM10.422 5.86801L12.012 8.60401L13.584 5.86201H10.422V5.86801Z" fill="black"/>
<path d="M18.054 14.778H13.446V10.17H18.054V14.778ZM14.646 13.578H16.854V11.37H14.646V13.578Z" fill="black"/>
<path d="M18.306 18.432H5.73602V19.632H18.306V18.432Z" fill="black"/>
</svg>
