<svg width="24" height="24" viewBox="0 0 24 24" fill="none" xmlns="http://www.w3.org/2000/svg">
<path d="M6.52356 5.15308H7.71768V10.9205H11.6059V11.9821H6.52356V5.15904V5.15308Z" fill="black"/>
<path d="M12.0117 6.13718C13.5117 4.6163 15.5764 4.50895 16.9882 5.93439C18.4 7.35984 18.3117 9.46521 16.8059 10.992C15.3 12.5189 13.2647 12.6382 11.8294 11.1769C10.3941 9.71571 10.5117 7.65209 12.0117 6.13121V6.13718ZM15.9294 10.0974C16.9941 9.01789 17.1764 7.66998 16.2176 6.69781C15.2588 5.72565 13.9353 5.94632 12.8823 7.01392C11.8294 8.08151 11.6235 9.44732 12.5706 10.4076C13.5176 11.3678 14.8764 11.165 15.9235 10.0974H15.9294Z" fill="black"/>
<path d="M5.52352 15.5308C5.52352 13.4851 6.89999 11.9821 8.95882 11.9821C10.5412 11.9821 11.6706 12.9185 12.047 14.1471H10.6941C10.3823 13.4433 9.78823 13.0199 8.95293 13.0199C7.57058 13.0199 6.75882 14.0815 6.75882 15.5129C6.75882 16.9443 7.59411 18.0537 8.98823 18.0537C10.2588 18.0537 10.8823 17.2604 10.9647 16.3002H8.64117V15.334H12.047V18.9424H10.9647V18.2565C10.5588 18.6978 9.8647 19.0795 8.80587 19.0795C6.92352 19.0795 5.51764 17.6481 5.51764 15.5368L5.52352 15.5308Z" fill="black"/>
<path d="M11.7765 15.5308C11.7765 13.4672 13.1588 11.9821 15.1588 11.9821C17.1588 11.9821 18.5588 13.4612 18.5588 15.5308C18.5588 17.6004 17.2059 19.0736 15.1706 19.0736C13.1353 19.0736 11.7824 17.5944 11.7824 15.5308H11.7765ZM17.3118 15.5249C17.3118 14.0636 16.5 13.0259 15.1471 13.0259C13.7941 13.0259 13.0118 14.0875 13.0118 15.5249C13.0118 16.9622 13.8235 18.0358 15.1588 18.0358C16.4941 18.0358 17.3177 16.9682 17.3177 15.5249H17.3118Z" fill="black"/>
<path d="M20.2118 3.67398V20.3261H3.78823V3.67398H20.2118ZM21.3882 2.48114H2.61176V21.5189H21.3882V2.48114Z" fill="black"/>
</svg>
