<svg width="24" height="24" viewBox="0 0 24 24" fill="none" xmlns="http://www.w3.org/2000/svg">
<path d="M11.94 3.96001C15.474 3.96001 18.348 6.83401 18.348 10.368C18.348 13.902 15.474 16.776 11.94 16.776C8.40597 16.776 5.53197 13.902 5.53197 10.368C5.53197 6.83401 8.40597 3.96001 11.94 3.96001ZM11.94 2.76001C7.73997 2.76001 4.33197 6.16801 4.33197 10.368C4.33197 14.568 7.73997 17.976 11.94 17.976C16.14 17.976 19.548 14.568 19.548 10.368C19.548 6.16801 16.14 2.76001 11.94 2.76001Z" fill="black"/>
<path d="M11.976 20.568C9.92397 20.568 7.95597 19.806 6.44397 18.42L7.25397 17.532C8.54997 18.714 10.224 19.362 11.982 19.362C13.74 19.362 15.354 18.732 16.638 17.592L17.436 18.486C15.93 19.824 13.992 20.562 11.982 20.562L11.976 20.568Z" fill="black"/>
<path d="M9.54118 8.77868L5.12305 13.1937L5.97128 14.0425L10.3894 9.6275L9.54118 8.77868Z" fill="black"/>
<path d="M9.53062 8.77454L8.68195 9.62292L11.5283 12.4702L12.3769 11.6219L9.53062 8.77454Z" fill="black"/>
<path d="M14.2414 8.77856L13.3931 9.62738L17.8113 14.0424L18.6595 13.1936L14.2414 8.77856Z" fill="black"/>
<path d="M14.2509 8.78057L11.0477 11.9838L11.8963 12.8323L15.0995 9.6291L14.2509 8.78057Z" fill="black"/>
</svg>
