<svg width="24" height="24" viewBox="0 0 24 24" fill="none" xmlns="http://www.w3.org/2000/svg">
<path d="M4.20599 6.03589H11.664V7.27789H5.63399V11.2619H11.262V12.5039H5.63399V16.8059H11.784V18.0479H4.20599V6.03589Z" fill="black"/>
<path d="M12.798 14.2439C12.798 11.8679 14.31 10.2419 16.602 10.2419C19.092 10.2419 20.19 12.1439 20.19 14.1599C20.19 14.3039 20.178 14.3759 20.178 14.4179H13.998C14.082 16.2059 15.078 17.2259 16.62 17.2259C17.76 17.2259 18.45 16.5779 18.81 15.8579H20.022C19.548 17.1839 18.324 18.1919 16.596 18.1919C14.22 18.1919 12.81 16.5359 12.81 14.2439H12.798ZM18.93 13.5239C18.786 12.1559 18.054 11.1779 16.566 11.1779C15.078 11.1779 14.232 12.1259 14.046 13.5239H18.93Z" fill="black"/>
</svg>
