<svg width="24" height="24" viewBox="0 0 24 24" fill="none" xmlns="http://www.w3.org/2000/svg">
<path d="M16.218 14.286V15.996H7.81798V14.286H16.218ZM17.418 13.086H6.61798V17.196H17.418V13.086Z" fill="black"/>
<path d="M9.61198 8.20201V10.914H7.81798V8.20201H9.61198ZM10.812 7.00201H6.61798V12.114H10.812V7.00201Z" fill="black"/>
<path d="M17.418 6.98401H12.018V8.18401H17.418V6.98401Z" fill="black"/>
<path d="M17.412 8.94601H11.97V10.146H17.412V8.94601Z" fill="black"/>
<path d="M17.418 10.908H12.018V12.108H17.418V10.908Z" fill="black"/>
<path d="M6.56398 21.672H2.37598V17.478H6.56998V21.672H6.56398ZM3.57598 20.472H5.36998V18.678H3.57598V20.472Z" fill="black"/>
<path d="M6.62399 6.72H2.42999V2.526H6.62399V6.72ZM3.63599 5.52H5.42999V3.726H3.63599V5.52Z" fill="black"/>
<path d="M21.594 6.72H17.4V2.526H21.594V6.72ZM18.606 5.52H20.4V3.726H18.606V5.52Z" fill="black"/>
<path d="M21.594 21.672H17.4V17.478H21.594V21.672ZM18.606 20.472H20.4V18.678H18.606V20.472Z" fill="black"/>
<path d="M5.07 6.09601H3.87V17.826H5.07V6.09601Z" fill="black"/>
<path d="M17.952 18.978H5.98798V20.178H17.952V18.978Z" fill="black"/>
<path d="M19.98 6.09601H18.78V17.778H19.98V6.09601Z" fill="black"/>
<path d="M17.982 3.978H5.94V5.178H17.982V3.978Z" fill="black"/>
</svg>
