<svg width="24" height="24" viewBox="0 0 24 24" fill="none" xmlns="http://www.w3.org/2000/svg">
<path d="M16.134 7.56H7.5V8.76H16.134V7.56Z" fill="black"/>
<path d="M16.206 9.444H7.5V10.644H16.206V9.444Z" fill="black"/>
<path d="M16.134 11.334H7.5V12.534H16.134V11.334Z" fill="black"/>
<path d="M16.134 13.122H7.5V14.322H16.134V13.122Z" fill="black"/>
<path d="M12.336 15.102H7.5V16.302H12.336V15.102Z" fill="black"/>
<path d="M6.56398 21.672H2.37598V17.478H6.56998V21.672H6.56398ZM3.57598 20.472H5.36998V18.678H3.57598V20.472Z" fill="black"/>
<path d="M6.62399 6.72H2.42999V2.526H6.62399V6.72ZM3.63599 5.52H5.42999V3.726H3.63599V5.52Z" fill="black"/>
<path d="M21.594 6.72H17.4V2.526H21.594V6.72ZM18.606 5.52H20.4V3.726H18.606V5.52Z" fill="black"/>
<path d="M21.594 21.672H17.4V17.478H21.594V21.672ZM18.606 20.472H20.4V18.678H18.606V20.472Z" fill="black"/>
<path d="M5.07 6.09601H3.87V17.826H5.07V6.09601Z" fill="black"/>
<path d="M17.952 18.978H5.98798V20.178H17.952V18.978Z" fill="black"/>
<path d="M19.98 6.09601H18.78V17.778H19.98V6.09601Z" fill="black"/>
<path d="M17.982 3.978H5.94V5.178H17.982V3.978Z" fill="black"/>
</svg>
