<svg width="24" height="24" viewBox="0 0 24 24" fill="none" xmlns="http://www.w3.org/2000/svg">
<path d="M21.576 22.776H17.382V18.582H21.576V22.776ZM18.582 21.576H20.376V19.782H18.582V21.576Z" fill="black"/>
<path d="M6.61801 22.716H2.42401V18.522H6.61801V22.716ZM3.62401 21.516H5.41801V19.722H3.62401V21.516Z" fill="black"/>
<path d="M6.61801 16.746H2.42401V12.552H6.61801V16.746ZM3.62401 15.546H5.41801V13.752H3.62401V15.546Z" fill="black"/>
<path d="M21.576 16.746H17.382V12.552H21.576V16.746ZM18.582 15.546H20.376V13.752H18.582V15.546Z" fill="black"/>
<path d="M17.724 20.082H5.99402V21.282H17.724V20.082Z" fill="black"/>
<path d="M20.076 16.194H18.876V19.158H20.076V16.194Z" fill="black"/>
<path d="M17.676 14.172H5.99402V15.372H17.676V14.172Z" fill="black"/>
<path d="M5.07598 16.164H3.87598V19.206H5.07598V16.164Z" fill="black"/>
<path d="M21.576 11.448H17.382V7.25403H21.576V11.448ZM18.582 10.248H20.376V8.45403H18.582V10.248Z" fill="black"/>
<path d="M6.61801 11.388H2.42401V7.19397H6.61801V11.388ZM3.62401 10.188H5.41801V8.39397H3.62401V10.188Z" fill="black"/>
<path d="M6.61801 5.418H2.42401V1.224H6.61801V5.418ZM3.62401 4.218H5.41801V2.424H3.62401V4.218Z" fill="black"/>
<path d="M21.576 5.418H17.382V1.224H21.576V5.418ZM18.582 4.218H20.376V2.424H18.582V4.218Z" fill="black"/>
<path d="M17.724 8.74799H5.99402V9.94799H17.724V8.74799Z" fill="black"/>
<path d="M20.076 4.86603H18.876V7.83003H20.076V4.86603Z" fill="black"/>
<path d="M17.676 2.84399H5.99402V4.04399H17.676V2.84399Z" fill="black"/>
<path d="M5.07598 4.836H3.87598V7.878H5.07598V4.836Z" fill="black"/>
<path d="M16.314 6.70801H7.67999V7.90801H16.314V6.70801Z" fill="black"/>
<path d="M16.314 4.88397H7.67999V6.08397H16.314V4.88397Z" fill="black"/>
<path d="M6.16202 15.564L5.86664 16.7271L17.8289 19.7651L18.1243 18.602L6.16202 15.564Z" fill="black"/>
<path d="M17.6682 15.586L5.70599 18.624L6.00138 19.7871L17.9636 16.7491L17.6682 15.586Z" fill="black"/>
</svg>
