<svg width="24" height="24" viewBox="0 0 24 24" fill="none" xmlns="http://www.w3.org/2000/svg">
<path d="M7.614 18.282V16.824C8.292 17.232 8.982 17.55 9.69 17.772C10.392 17.994 11.136 18.108 11.916 18.108C12.696 18.108 13.398 17.982 13.944 17.736C14.49 17.484 14.898 17.136 15.174 16.692C15.45 16.242 15.588 15.732 15.588 15.156C15.588 14.58 15.48 14.088 15.27 13.728C15.06 13.362 14.718 13.08 14.244 12.876C13.77 12.672 13.146 12.522 12.36 12.432L11.4 12.318C10.248 12.18 9.318 11.802 8.616 11.184C7.914 10.566 7.56 9.67798 7.56 8.51398C7.56 7.87198 7.68 7.30198 7.926 6.79798C8.166 6.29398 8.508 5.86798 8.946 5.51998C9.384 5.17198 9.894 4.90798 10.482 4.71598C11.07 4.52398 11.712 4.42798 12.402 4.42798C12.99 4.42798 13.524 4.47598 13.998 4.55998C14.472 4.64998 14.904 4.76998 15.306 4.92598C15.702 5.08198 16.074 5.27998 16.422 5.51998V6.97798C15.798 6.53998 15.162 6.21598 14.52 5.98798C13.878 5.76598 13.188 5.65198 12.444 5.65198C11.856 5.65198 11.346 5.72398 10.908 5.86198C10.47 5.99998 10.116 6.20398 9.834 6.45598C9.552 6.71398 9.342 7.01398 9.198 7.36798C9.06 7.72198 8.988 8.10598 8.988 8.53198C8.988 9.10798 9.09 9.56398 9.288 9.89398C9.486 10.23 9.81 10.488 10.26 10.674C10.71 10.86 11.292 10.998 12.006 11.088L12.966 11.202C13.77 11.292 14.478 11.472 15.09 11.748C15.696 12.024 16.176 12.426 16.518 12.96C16.866 13.494 17.034 14.19 17.034 15.06C17.034 15.75 16.908 16.362 16.662 16.896C16.41 17.43 16.056 17.874 15.588 18.24C15.12 18.606 14.568 18.882 13.938 19.068C13.302 19.254 12.606 19.344 11.838 19.344C11.07 19.344 10.338 19.26 9.678 19.092C9.018 18.924 8.34 18.654 7.632 18.288L7.614 18.282Z" fill="black"/>
<path d="M16.08 10.878C13.764 10.878 11.88 8.99403 11.88 6.67803C11.88 4.36203 13.764 2.47803 16.08 2.47803C18.396 2.47803 20.28 4.36203 20.28 6.67803C20.28 8.99403 18.396 10.878 16.08 10.878ZM16.08 3.67803C14.424 3.67803 13.08 5.02203 13.08 6.67803C13.08 8.33403 14.43 9.67803 16.08 9.67803C17.73 9.67803 19.08 8.33403 19.08 6.67803C19.08 5.02203 17.73 3.67803 16.08 3.67803Z" fill="black"/>
<path d="M7.76403 21.534C5.44803 21.534 3.56403 19.65 3.56403 17.334C3.56403 15.018 5.44803 13.134 7.76403 13.134C10.08 13.134 11.964 15.018 11.964 17.334C11.964 19.65 10.08 21.534 7.76403 21.534ZM7.76403 14.334C6.10803 14.334 4.76403 15.678 4.76403 17.334C4.76403 18.99 6.11403 20.334 7.76403 20.334C9.41403 20.334 10.764 18.99 10.764 17.334C10.764 15.678 9.41403 14.334 7.76403 14.334Z" fill="black"/>
</svg>
