<svg width="24" height="24" viewBox="0 0 24 24" fill="none" xmlns="http://www.w3.org/2000/svg">
<path d="M15.516 14.976C15.516 13.344 14.496 12.612 12.192 12.348L11.232 12.234C8.92803 11.964 7.41003 10.716 7.41003 8.48999C7.41003 5.87999 9.33003 4.34399 12.036 4.34399C13.86 4.34399 14.82 5.09399 15.336 5.95799V4.57799H16.62V8.57399H15.336C15.276 7.07399 14.412 5.53799 12.036 5.53799C9.84603 5.53799 8.83203 6.76799 8.83203 8.57399C8.83203 10.11 9.69603 10.746 11.844 11.01L12.804 11.124C15.204 11.412 16.95 12.408 16.95 14.946C16.95 17.766 15.012 19.266 11.958 19.266C10.134 19.266 9.11403 18.462 8.58003 17.574V19.014H7.31403V15.042H8.58003C8.65803 16.518 9.67203 18.036 12 18.036C14.328 18.036 15.516 16.824 15.516 14.982V14.976Z" fill="black"/>
<path d="M15.756 10.7521C13.44 10.7521 11.556 8.86805 11.556 6.55205C11.556 4.23605 13.44 2.35205 15.756 2.35205C18.072 2.35205 19.956 4.23605 19.956 6.55205C19.956 8.86805 18.072 10.7521 15.756 10.7521ZM15.756 3.55205C14.1 3.55205 12.756 4.89605 12.756 6.55205C12.756 8.20805 14.106 9.55205 15.756 9.55205C17.406 9.55205 18.756 8.20805 18.756 6.55205C18.756 4.89605 17.406 3.55205 15.756 3.55205Z" fill="black"/>
<path d="M7.91399 21.306C5.59799 21.306 3.71399 19.422 3.71399 17.106C3.71399 14.79 5.59799 12.906 7.91399 12.906C10.23 12.906 12.114 14.79 12.114 17.106C12.114 19.422 10.23 21.306 7.91399 21.306ZM7.91399 14.106C6.25799 14.106 4.91399 15.45 4.91399 17.106C4.91399 18.762 6.26399 20.106 7.91399 20.106C9.56399 20.106 10.914 18.762 10.914 17.106C10.914 15.45 9.56399 14.106 7.91399 14.106Z" fill="black"/>
</svg>
