<svg width="24" height="24" viewBox="0 0 24 24" fill="none" xmlns="http://www.w3.org/2000/svg">
<path d="M13.176 4.33196V19.548H10.962V4.33196H13.176ZM14.376 3.13196H9.76202V20.748H14.376V3.13196Z" fill="black"/>
<path d="M19.104 5.19604H4.70398V10.908H19.104V5.19604Z" fill="white"/>
<path d="M17.904 6.39604V9.70805H5.90398V6.39604H17.904ZM19.104 5.19604H4.70398V10.908H19.104V5.19604Z" fill="black"/>
<path d="M19.104 12.3H4.70398V18.012H19.104V12.3Z" fill="white"/>
<path d="M17.904 13.5V16.812H5.90398V13.5H17.904ZM19.104 12.3H4.70398V18.012H19.104V12.3Z" fill="black"/>
<path d="M20.718 19.77H3.91803V20.97H20.718V19.77Z" fill="black"/>
<path d="M12.462 7.45203H9.38397V8.65203H12.462V7.45203Z" fill="black"/>
<path d="M12.108 9.25203L14.184 8.05203L12.108 6.85803V9.25203Z" fill="black"/>
<path d="M14.184 14.556H11.106V15.756H14.184V14.556Z" fill="black"/>
<path d="M11.454 13.962L9.38397 15.156L11.454 16.35V13.962Z" fill="black"/>
</svg>
