<svg width="24" height="24" viewBox="0 0 24 24" fill="none" xmlns="http://www.w3.org/2000/svg">
<path d="M20.982 3.20398H2.95203V4.10398H20.982V3.20398Z" fill="black"/>
<path d="M20.85 7.84802H3.21002V8.74802H20.85V7.84802Z" fill="black"/>
<path d="M21.006 10.368H3.05402V11.268H21.006V10.368Z" fill="black"/>
<path d="M20.958 17.4659H3.21002V18.3659H20.958V17.4659Z" fill="black"/>
<path d="M20.802 20.238H2.95203V21.138H20.802V20.238Z" fill="black"/>
<path d="M20.982 3.65405H20.082V21.1261H20.982V3.65405Z" fill="black"/>
<path d="M13.632 3.28198H12.732V20.91H13.632V3.28198Z" fill="black"/>
<path d="M11.01 3.28198H10.11V20.91H11.01V3.28198Z" fill="black"/>
<path d="M9.072 3.28198H8.172V20.91H9.072V3.28198Z" fill="black"/>
<path d="M6.43198 3.28198H5.53198V20.91H6.43198V3.28198Z" fill="black"/>
<path d="M4.15801 3.28198H2.95801V20.91H4.15801V3.28198Z" fill="black"/>
<path d="M13.314 8.646H6.11401V10.446H13.314V8.646Z" fill="black"/>
<path d="M10.206 9.54602H9.00598V18.45H10.206V9.54602Z" fill="black"/>
</svg>
