<svg width="24" height="24" viewBox="0 0 24 24" fill="none" xmlns="http://www.w3.org/2000/svg">
<path d="M7.73997 16.494C6.95397 15.378 6.79797 14.334 6.79797 12.624V4.05005H8.86197V12.57C8.86197 13.746 8.92197 14.55 9.29397 15.258C9.74397 16.122 10.764 16.65 11.964 16.65C13.164 16.65 14.22 16.122 14.67 15.258C15.024 14.568 15.102 13.746 15.102 12.57V4.05005H17.16V12.63C17.16 14.256 16.962 15.456 16.236 16.458C15.372 17.658 13.722 18.324 11.958 18.324C10.194 18.324 8.56197 17.676 7.73997 16.5V16.494Z" fill="black"/>
<path d="M5.20801 19.9501V18.9661H18.762V19.9501H5.20801Z" fill="black"/>
</svg>
