<svg width="24" height="24" viewBox="0 0 24 24" fill="none" xmlns="http://www.w3.org/2000/svg">
<path d="M7.58987 2.73C7.58987 2.54028 7.45403 2.43 7.33792 2.43C7.22181 2.43003 7.08596 2.5403 7.08596 2.73C7.08596 2.9197 7.22181 3.02997 7.33792 3.03C7.45403 3.03 7.58987 2.91973 7.58987 2.73ZM8.18987 2.73C8.18987 3.20302 7.83152 3.63 7.33792 3.63C6.84433 3.62997 6.48596 3.203 6.48596 2.73C6.48596 2.257 6.84433 1.83003 7.33792 1.83C7.83152 1.83 8.18987 2.25699 8.18987 2.73Z" fill="black"/>
<path d="M6.78586 2.28V3.18H5.13V2.28H6.78586Z" fill="black"/>
<path d="M18.6361 2.28V3.18H7.89001V2.28H18.6361Z" fill="black"/>
<path d="M16.9622 11.5135L16.3259 12.1504L14.4057 10.2303L10.2602 14.3764L9.6239 13.7401L14.4063 8.95767L16.9622 11.5135Z" fill="#1D1D1B"/>
<path d="M20.8564 9.91758L18.7148 12.0656L18.0773 11.4305L20.2195 9.28242L20.8564 9.91758Z" fill="#1D1D1B"/>
<path d="M5.77805 16.92V17.82H2.00403V16.92H5.77805Z" fill="#1D1D1B"/>
<path d="M10.2605 14.3762L10.008 14.6281L7.99883 16.6437L7.36133 16.008L9.37168 13.9924L9.62363 13.7398L10.2605 14.3762Z" fill="#1D1D1B"/>
<path d="M10.6677 6.57001V7.47001H6.90601V6.57001H10.6677Z" fill="#1D1D1B"/>
<path d="M14.7247 9.27621L14.0872 9.91136L12.3593 8.17758L12.9968 7.54242L14.7247 9.27621Z" fill="#1D1D1B"/>
<path d="M14.0638 13.86V14.76H9.65405V13.86H14.0638Z" fill="#1D1D1B"/>
<path d="M14.4544 16.3322L10.2602 20.5322L9.6239 19.8958L13.8175 15.6958L14.4544 16.3322Z" fill="#1D1D1B"/>
<path d="M18.2279 12.4979C18.2279 12.3459 18.1784 12.2071 18.0949 12.0966L18.051 12.0438C17.9313 11.9066 17.7543 11.82 17.55 11.82C17.3196 11.82 17.124 11.9283 17.0027 12.096L16.9992 12.1001C16.9193 12.2078 16.8721 12.3417 16.872 12.4979C16.872 12.8734 17.1745 13.1758 17.55 13.1759C17.9254 13.1759 18.2279 12.8734 18.2279 12.4979ZM19.1279 12.4979C19.1279 13.3705 18.4225 14.0759 17.55 14.0759C16.6775 14.0758 15.972 13.3704 15.972 12.4979C15.9721 12.1521 16.0796 11.8315 16.2738 11.568C16.5605 11.1719 17.0245 10.92 17.55 10.92C18.0177 10.92 18.4411 11.1213 18.7295 11.452H18.7283C18.9786 11.7305 19.1279 12.0989 19.1279 12.4979Z" fill="#1D1D1B"/>
<path d="M7.58386 17.1419C7.58385 16.9681 7.51893 16.8116 7.41277 16.6949L7.40046 16.6808C7.39833 16.6788 7.39535 16.6767 7.39285 16.6743C7.38725 16.6692 7.38014 16.662 7.37175 16.6538L7.32195 16.6111C7.20308 16.5174 7.05988 16.464 6.90593 16.464C6.53052 16.464 6.22804 16.7665 6.228 17.1419C6.228 17.5174 6.53049 17.8198 6.90593 17.8199C7.2814 17.8199 7.58386 17.5174 7.58386 17.1419ZM8.48386 17.1419C8.48386 18.0145 7.77846 18.7199 6.90593 18.7199C6.03344 18.7198 5.328 18.0144 5.328 17.1419C5.32804 16.2695 6.03346 15.564 6.90593 15.564C7.27686 15.564 7.61262 15.6945 7.87859 15.9038L7.98816 15.9982L7.99343 16.0029L8.00281 16.0122C8.00464 16.0139 8.01585 16.0239 8.02214 16.0298C8.0344 16.0413 8.05491 16.0624 8.07839 16.0896H8.07898C8.3327 16.3687 8.48384 16.7399 8.48386 17.1419Z" fill="#1D1D1B"/>
<path d="M12.4619 7.17594C12.4619 7.00209 12.397 6.84565 12.2908 6.72887L12.2891 6.72652C12.1601 6.58288 11.9799 6.49801 11.784 6.49801C11.4415 6.49804 11.1606 6.74984 11.1137 7.0775L11.1113 7.09449L11.1072 7.11148C11.108 7.10785 11.1072 7.10924 11.1066 7.11969C11.1059 7.13213 11.1061 7.14691 11.1061 7.17594C11.1061 7.55139 11.4085 7.85383 11.784 7.85387C12.0037 7.85387 12.1969 7.75047 12.3189 7.58902L12.3236 7.58316C12.4126 7.46935 12.4619 7.33235 12.4619 7.17594ZM13.3619 7.17594C13.3619 7.53282 13.2448 7.86137 13.0367 8.13043L13.0373 8.13102C12.7514 8.50945 12.2962 8.75387 11.784 8.75387C10.9115 8.75383 10.2061 8.04844 10.2061 7.17594C10.2061 7.13431 10.2057 7.0472 10.223 6.95035C10.3323 6.18617 10.9866 5.59804 11.784 5.59801C12.248 5.59801 12.6677 5.80112 12.9588 6.12535H12.9582C13.2111 6.40434 13.3619 6.77465 13.3619 7.17594Z" fill="#1D1D1B"/>
<path d="M14.8499 13.614C15.3212 13.614 15.7346 13.8181 16.0247 14.1413H16.0241C16.277 14.4203 16.4278 14.7906 16.4278 15.1919V15.6419H16.3563C16.1629 16.2946 15.5601 16.7698 14.844 16.7699C14.3507 16.7699 13.903 16.5438 13.6147 16.1792L13.6153 16.1786C13.3956 15.9059 13.272 15.5615 13.272 15.1919C13.272 15.0616 13.2895 14.943 13.3136 14.8386H13.3142C13.474 14.1426 14.1004 13.614 14.8499 13.614ZM14.172 15.1919C14.172 15.3392 14.2142 15.4692 14.2851 15.5734L14.3173 15.6161L14.3208 15.6208C14.4406 15.7723 14.6294 15.8699 14.844 15.8699C15.2195 15.8698 15.522 15.5674 15.522 15.1919V15.1064C15.5045 14.9669 15.4452 14.8421 15.3567 14.7449L15.355 14.7425C15.2251 14.5979 15.0505 14.514 14.8499 14.514C14.532 14.514 14.2594 14.7409 14.1907 15.0402V15.0413C14.1788 15.0929 14.172 15.1423 14.172 15.1919Z" fill="#1D1D1B"/>
<path d="M18.1559 7.35593C18.1558 6.5673 17.5166 5.928 16.728 5.928C15.9393 5.92804 15.3001 6.56732 15.3 7.35593C15.3 8.14457 15.9393 8.78382 16.728 8.78386C17.5166 8.78386 18.1559 8.14459 18.1559 7.35593ZM19.0559 7.35593C19.0559 8.64165 18.0137 9.68386 16.728 9.68386C15.4423 9.68382 14.4 8.64163 14.4 7.35593C14.4001 6.07027 15.4423 5.02804 16.728 5.028C18.0136 5.028 19.0558 6.07024 19.0559 7.35593Z" fill="#1D1D1B"/>
<path d="M15.6072 9.02299L14.7253 9.91127L14.0867 9.2767L14.9685 8.38901L15.6072 9.02299Z" fill="#1D1D1B"/>
</svg>
