<svg width="24" height="24" viewBox="0 0 24 24" fill="none" xmlns="http://www.w3.org/2000/svg">
<path d="M11.4706 11.3571L7.51648 7.40297L3.56234 11.3571L7.51648 15.3113L11.4706 11.3571Z" fill="white"/>
<path d="M12.3193 11.3572L7.51648 16.16L2.71368 11.3572L7.51648 6.55444L12.3193 11.3572ZM4.41073 11.3572L7.51648 14.463L10.6222 11.3572L7.51648 8.2515L4.41073 11.3572Z" fill="#1D1D1B"/>
<path d="M16.0645 11.361L12.1104 7.40683L8.15621 11.361L12.1104 15.3151L16.0645 11.361Z" fill="white"/>
<path d="M16.9132 11.3611L12.1104 16.1639L7.30755 11.3611L12.1104 6.5583L16.9132 11.3611ZM9.00461 11.3611L12.1104 14.4669L15.2161 11.3611L12.1104 8.25536L9.00461 11.3611Z" fill="#1D1D1B"/>
<path d="M20.4456 11.3621L16.4915 7.40796L12.5373 11.3621L16.4915 15.3162L20.4456 11.3621Z" fill="white"/>
<path d="M21.2943 11.3622L16.4915 16.165L11.6887 11.3622L16.4915 6.55943L21.2943 11.3622ZM13.3857 11.3622L16.4915 14.468L19.5972 11.3622L16.4915 8.25649L13.3857 11.3622Z" fill="#1D1D1B"/>
</svg>
