<svg width="24" height="24" viewBox="0 0 24 24" fill="none" xmlns="http://www.w3.org/2000/svg">
<path d="M11.184 6.10199C14.5693 6.10199 17.3099 8.84261 17.3099 12.228H16.1099C16.1099 9.50535 13.9066 7.30199 11.184 7.30199C8.46135 7.302 6.258 9.50536 6.25798 12.228H5.05798C5.058 8.84261 7.79861 6.102 11.184 6.10199Z" fill="#1D1D1B"/>
<path d="M7.23004 18.27C5.45404 18.27 4.01404 16.8 4.01404 14.982C4.01404 13.164 5.45404 11.694 7.23004 11.694V18.27Z" fill="#1D1D1B"/>
<path d="M7.83015 11.094V18.87H7.23015C5.11068 18.87 3.41409 17.1192 3.41394 14.9823C3.41394 12.8452 5.11059 11.094 7.23015 11.094H7.83015ZM4.61394 14.9823C4.61407 16.2655 5.48175 17.3206 6.63015 17.5979V12.3655C5.48159 12.6428 4.61394 13.6989 4.61394 14.9823Z" fill="#1D1D1B"/>
<path d="M15.066 18.27C16.884 18.27 18.354 16.8 18.354 14.982C18.354 13.164 16.884 11.694 15.066 11.694V18.27Z" fill="#1D1D1B"/>
<path d="M17.7542 14.9823C17.7542 13.702 16.8628 12.6334 15.6659 12.3614V17.602C16.8627 17.33 17.7541 16.2624 17.7542 14.9823ZM18.9542 14.9823C18.9541 17.1315 17.2152 18.87 15.0659 18.87H14.4659V11.094H15.0659C17.2153 11.094 18.9542 12.8329 18.9542 14.9823Z" fill="#1D1D1B"/>
</svg>
