<svg width="24" height="24" viewBox="0 0 24 24" fill="none" xmlns="http://www.w3.org/2000/svg">
<path d="M8.23206 4.656V9.906H2.98206V4.656H8.23206ZM3.88206 9.006H7.33206V5.556H3.88206V9.006Z" fill="black"/>
<path d="M14.8739 12.0237L9.34204 15.2218V8.8327L14.8739 12.0237ZM10.242 13.662L13.0739 12.0243L10.242 10.3907V13.662Z" fill="black"/>
<path d="M8.23206 9.16199V14.412H2.98206V9.16199H8.23206ZM3.88206 13.512H7.33206V10.062H3.88206V13.512Z" fill="black"/>
<path d="M8.23206 9.16199V14.412H2.98206V9.16199H8.23206ZM3.88206 13.512H7.33206V10.062H3.88206V13.512Z" fill="black"/>
<path d="M8.23206 13.668V18.918H2.98206V13.668H8.23206ZM3.88206 18.018H7.33206V14.568H3.88206V18.018Z" fill="black"/>
<path d="M21.024 4.656V9.906H15.774V4.656H21.024ZM16.674 9.006H20.124V5.556H16.674V9.006Z" fill="black"/>
<path d="M21.024 9.16199V14.412H15.774V9.16199H21.024ZM16.674 13.512H20.124V10.062H16.674V13.512Z" fill="black"/>
<path d="M21.024 9.16199V14.412H15.774V9.16199H21.024ZM16.674 13.512H20.124V10.062H16.674V13.512Z" fill="black"/>
<path d="M21.024 13.668V18.918H15.774V13.668H21.024ZM16.674 18.018H20.124V14.568H16.674V18.018Z" fill="black"/>
<path d="M21.1742 4.506V19.0619H2.83203V4.506H21.1742ZM4.03203 17.8619H19.9742V5.706H4.03203V17.8619Z" fill="black"/>
<path d="M14.6578 6.294V7.494H9.34802V6.294H14.6578Z" fill="black"/>
</svg>
