<svg width="24" height="24" viewBox="0 0 24 24" fill="none" xmlns="http://www.w3.org/2000/svg">
<path d="M14.5083 3.642V4.842H9.46802V3.642H14.5083Z" fill="#1D1D1B"/>
<path d="M12.588 15.594V20.6278H11.388V15.594H12.588Z" fill="#1D1D1B"/>
<path d="M7.58398 13.6261V12.3242H8.78398V13.6261C8.78405 14.3807 9.39756 14.9943 10.1521 14.9943H13.8541C14.6086 14.9942 15.2222 14.3807 15.2223 13.6261V12.306H16.4223V13.6261C16.4222 15.0434 15.2714 16.1942 13.8541 16.1943H10.1521C8.73482 16.1943 7.58405 15.0434 7.58398 13.6261Z" fill="#1D1D1B"/>
<path d="M13.362 6.036H10.614C10.0805 6.036 9.64801 6.46849 9.64801 7.002V13.176C9.64801 13.7095 10.0805 14.142 10.614 14.142H13.362C13.8955 14.142 14.328 13.7095 14.328 13.176V7.002C14.328 6.46849 13.8955 6.036 13.362 6.036Z" fill="#0B0B18"/>
<path d="M14.0279 7.0022C14.0279 6.63447 13.73 6.33613 13.3623 6.33599H10.6142C10.2464 6.33599 9.94802 6.63438 9.94802 7.0022V13.1762C9.94815 13.5439 10.2465 13.8419 10.6142 13.8419H13.3623C13.7299 13.8417 14.0278 13.5439 14.0279 13.1762V7.0022ZM14.6279 13.1762C14.6278 13.8752 14.0613 14.4417 13.3623 14.4419H10.6142C9.91512 14.4419 9.34815 13.8753 9.34802 13.1762V7.0022C9.34802 6.30301 9.91504 5.73599 10.6142 5.73599H13.3623C14.0614 5.73613 14.6279 6.3031 14.6279 7.0022V13.1762Z" fill="#1D1D1B"/>
<path d="M14.706 11.25H12.354V12.288H14.706V11.25Z" fill="white"/>
<path d="M14.706 9.192H12.354V10.23H14.706V9.192Z" fill="white"/>
<path d="M14.706 7.15199H12.354V8.18999H14.706V7.15199Z" fill="white"/>
</svg>
