<svg width="24" height="24" viewBox="0 0 24 24" fill="none" xmlns="http://www.w3.org/2000/svg">
<path d="M9.03586 4.12799V14.1481H6.75598V4.12799H9.03586ZM7.65598 13.2481H8.13586V5.02799H7.65598V13.2481Z" fill="#1D1D1B"/>
<path d="M9.03586 14.574V20.6097H6.75598V14.574H9.03586ZM7.65598 19.7097H8.13586V15.474H7.65598V19.7097Z" fill="#1D1D1B"/>
<path d="M20.766 4.12799V8.78971H18.4919V4.12799H20.766ZM19.3919 7.88971H19.866V5.02799H19.3919V7.88971Z" fill="#1D1D1B"/>
<path d="M20.766 9.216V20.6101H18.4919V9.216H20.766ZM19.3919 19.7101H19.866V10.116H19.3919V19.7101Z" fill="#1D1D1B"/>
<path d="M16.8598 4.12799V12.8221H14.58V4.12799H16.8598ZM15.48 11.9221H15.9598V5.02799H15.48V11.9221Z" fill="#1D1D1B"/>
<path d="M16.8598 13.248V20.6097H14.58V13.248H16.8598ZM15.48 19.7097H15.9598V14.148H15.48V19.7097Z" fill="#1D1D1B"/>
<path d="M12.942 4.12799V7.80006H10.668V4.12799H12.942ZM11.568 6.90006H12.042V5.02799H11.568V6.90006Z" fill="#1D1D1B"/>
<path d="M12.942 8.22601V20.6098H10.668V8.22601H12.942ZM11.568 19.7098H12.042V9.12601H11.568V19.7098Z" fill="#1D1D1B"/>
<path d="M9.20403 13.698H6.58203V15.024H9.20403V13.698Z" fill="#1D1D1B"/>
<path d="M9.65403 13.248V15.474H6.13196V13.248H9.65403ZM7.03196 14.574H8.75403V14.148H7.03196V14.574Z" fill="#1D1D1B"/>
<path d="M13.116 7.35001H10.494V8.67601H13.116V7.35001Z" fill="#1D1D1B"/>
<path d="M13.566 6.89999V9.12597H10.0439V6.89999H13.566ZM10.9439 8.22597H12.666V7.79999H10.9439V8.22597Z" fill="#1D1D1B"/>
<path d="M17.028 12.366H14.406V13.698H17.028V12.366Z" fill="#1D1D1B"/>
<path d="M17.4781 11.916V14.1479H13.9561V11.916H17.4781ZM14.8561 13.2479H16.5781V12.816H14.8561V13.2479Z" fill="#1D1D1B"/>
<path d="M20.94 8.33401H18.318V9.66602H20.94V8.33401Z" fill="#1D1D1B"/>
<path d="M21.3901 7.884V10.1158H17.868V7.884H21.3901ZM18.768 9.21584H20.4901V8.784H18.768V9.21584Z" fill="#1D1D1B"/>
<path d="M5.50205 4.12799V8.78971H3.22803V4.12799H5.50205ZM4.12803 7.88971H4.60205V5.02799H4.12803V7.88971Z" fill="#1D1D1B"/>
<path d="M5.50205 9.216V20.6101H3.22803V9.216H5.50205ZM4.12803 19.7101H4.60205V10.116H4.12803V19.7101Z" fill="#1D1D1B"/>
<path d="M5.67596 8.33401H3.05396V9.66602H5.67596V8.33401Z" fill="#1D1D1B"/>
<path d="M6.12607 7.884V10.1158H2.604V7.884H6.12607ZM3.504 9.21584H5.22607V8.784H3.504V9.21584Z" fill="#1D1D1B"/>
</svg>
