<svg width="24" height="24" viewBox="0 0 24 24" fill="none" xmlns="http://www.w3.org/2000/svg">
<path d="M17.43 5.715H6.55499V20.64H17.43V5.715Z" fill="#0B0B18"/>
<path d="M12 10.785C12.8202 10.785 13.485 10.1201 13.485 9.3C13.485 8.47986 12.8202 7.815 12 7.815C11.1799 7.815 10.515 8.47986 10.515 9.3C10.515 10.1201 11.1799 10.785 12 10.785Z" fill="#0B0B18"/>
<path d="M13.0052 9.30035C13.0052 8.74543 12.5553 8.29566 12.0004 8.29547C11.4453 8.29547 10.9955 8.74531 10.9955 9.30035C10.9957 9.85524 11.4454 10.3052 12.0004 10.3052C12.5551 10.305 13.0051 9.85512 13.0052 9.30035ZM13.9647 9.30035C13.9645 10.3853 13.0853 11.2645 12.0004 11.2647C10.9152 11.2647 10.0347 10.3854 10.0345 9.30035C10.0345 8.21511 10.9151 7.33453 12.0004 7.33453C13.0854 7.33472 13.9647 8.21523 13.9647 9.30035Z" fill="white"/>
<path d="M12 18.525C13.516 18.525 14.745 17.296 14.745 15.78C14.745 14.264 13.516 13.035 12 13.035C10.484 13.035 9.255 14.264 9.255 15.78C9.255 17.296 10.484 18.525 12 18.525Z" fill="#0B0B18"/>
<path d="M14.2648 15.7801C14.2648 14.5292 13.251 13.5155 12.0001 13.5155C10.7492 13.5155 9.73547 14.5292 9.73547 15.7801C9.73554 17.031 10.7492 18.0448 12.0001 18.0448C13.251 18.0447 14.2647 17.031 14.2648 15.7801ZM15.2257 15.7801C15.2256 17.5611 13.7811 19.0056 12.0001 19.0057C10.219 19.0057 8.7746 17.5612 8.77454 15.7801C8.77454 13.999 10.219 12.5545 12.0001 12.5545C13.7812 12.5546 15.2257 13.999 15.2257 15.7801Z" fill="white"/>
<path d="M17.4446 3.39V4.89H6.55499V3.39H17.4446Z" fill="#0B0B18"/>
</svg>
