<svg width="24" height="24" viewBox="0 0 24 24" fill="none" xmlns="http://www.w3.org/2000/svg">
<rect width="24" height="24" fill="white"/>
<path d="M20.0668 9.15576H3.72772V19.6294H20.0668V9.15576Z" fill="#0B0B18"/>
<path d="M20.4 8.82257V19.9627H3.39453V8.82257H20.4ZM4.06092 19.2963H19.7336V9.48896H4.06092V19.2963Z" fill="#1D1D1B"/>
<path d="M20.3361 16.3761L20.3407 17.7354L3.2338 17.7943L3.22913 16.4349L20.3361 16.3761Z" fill="white"/>
<path d="M19.8458 3.6L3 6.76782L3.38436 8.81176L20.2302 5.64394L19.8458 3.6Z" fill="white"/>
<path d="M3.00726 6.77011L5.87544 6.22638L4.3394 8.63238L3.38787 8.8091L3.00726 6.77011Z" fill="#0B0B18"/>
<path d="M7.7309 5.87978L9.5456 5.53995L8.01636 7.93916L6.18127 8.28578L7.7309 5.87978Z" fill="#0B0B18"/>
<path d="M11.4011 5.18653L13.2634 4.8399L11.7274 7.23911L9.8515 7.59254L11.4011 5.18653Z" fill="#0B0B18"/>
<path d="M15.1256 4.48648L16.8995 4.15344L15.3431 6.55945L13.5556 6.89928L15.1256 4.48648Z" fill="#0B0B18"/>
<path d="M18.755 3.8068L19.8493 3.60291L20.2367 5.64189L17.219 6.21281L18.755 3.8068Z" fill="#0B0B18"/>
</svg>
