<svg width="24" height="24" viewBox="0 0 24 24" fill="none" xmlns="http://www.w3.org/2000/svg">
<rect x="0.418005" y="0.418005" width="23.164" height="23.164" stroke="black" stroke-width="0.83601"/>
<path d="M18.9597 20.1904L15.5751 14.63" stroke="black" stroke-width="0.83601"/>
<path d="M10.672 20.1439L14.379 14.5835" stroke="black" stroke-width="0.83601"/>
<circle cx="5.79692" cy="4.63799" r="1.69231" fill="black"/>
<rect x="10.1892" y="14.825" width="0.338028" height="9.85111" transform="rotate(-90 10.1892 14.825)" fill="black"/>
<rect x="10.6237" y="4.24945" width="0.338028" height="9.4165" transform="rotate(-90 10.6237 4.24945)" fill="black"/>
<rect x="19.7023" y="4.24945" width="0.338028" height="10.2374" fill="black"/>
<rect x="10.2856" y="3.91144" width="0.338028" height="2.31791" fill="black"/>
<rect x="10.1892" y="10.0443" width="0.338028" height="4.44266" fill="black"/>
<rect x="4.18461" y="15.1947" width="1.28874" height="5.48995" stroke="black" stroke-width="0.83601"/>
<rect x="3.85111" y="10.8531" width="0.169014" height="3.83903" stroke="black" stroke-width="0.169014"/>
<rect x="2.49906" y="14.2575" width="0.169014" height="1.1831" transform="rotate(-90 2.49906 14.2575)" stroke="black" stroke-width="0.169014"/>
<rect x="7.76261" y="9.09054" width="0.169014" height="5.14286" transform="rotate(-90 7.76261 9.09054)" stroke="black" stroke-width="0.169014"/>
<rect x="2.49906" y="7.20724" width="0.169014" height="10.4064" transform="rotate(-90 2.49906 7.20724)" stroke="black" stroke-width="0.169014"/>
<rect x="2.49906" y="7.37626" width="0.169014" height="6.88129" stroke="black" stroke-width="0.169014"/>
<rect x="12.7365" y="7.37626" width="0.169014" height="1.37626" stroke="black" stroke-width="0.169014"/>
<rect x="7.76261" y="9.25956" width="0.169014" height="5.4326" stroke="black" stroke-width="0.169014"/>
<rect x="6.30936" y="15.1947" width="1.28874" height="5.48995" stroke="black" stroke-width="0.83601"/>
<rect x="11.3798" y="12.6836" width="7.5664" height="0.902421" stroke="black" stroke-width="0.83601"/>
<rect x="17.6092" y="5.3436" width="1.33703" height="1.33703" stroke="black" stroke-width="0.83601"/>
<rect x="14.5186" y="5.3436" width="1.33703" height="1.33703" stroke="black" stroke-width="0.83601"/>
<line x1="14.1006" y1="7.83956" x2="19.3642" y2="7.83956" stroke="black" stroke-width="0.83601"/>
<line x1="14.1006" y1="9.62625" x2="19.3642" y2="9.62625" stroke="black" stroke-width="0.83601"/>
<line x1="14.1006" y1="10.6403" x2="19.3642" y2="10.6403" stroke="black" stroke-width="0.83601"/>
<line x1="14.1006" y1="8.75704" x2="19.3642" y2="8.75704" stroke="black" stroke-width="0.83601"/>
<rect x="2.75256" y="7.29175" width="9.8994" height="1.54527" fill="black"/>
<rect x="2.75256" y="8.83704" width="4.92555" height="1.93159" fill="black"/>
<rect x="4.10461" y="10.7203" width="3.57344" height="4.05634" fill="black"/>
<rect x="4.10461" y="15.1147" width="1.44869" height="5.6499" fill="black"/>
<rect x="6.22937" y="15.1147" width="1.44869" height="5.6499" fill="black"/>
<rect x="2.75256" y="10.7686" width="1.01408" height="3.23541" fill="black"/>
</svg>
