<svg width="23" height="25" viewBox="0 0 23 25" fill="none" xmlns="http://www.w3.org/2000/svg">
<path d="M8.5604 2.52592V24.1004L0.242538 21.761V17.602L4.31482 18.6418V14.1363L0.242538 13.0099V9.02424L4.31482 10.064V5.55847L0.242538 4.34545V0.273163L8.5604 2.52592Z" fill="black"/>
<path d="M20.2578 0.880035L21.9902 4.25894L22.5967 8.24429V12.0568L21.5566 16.4757L20.6045 18.9884L18.2647 21.2414L8.56055 24.0138V2.61246L16.6182 0.533356L18.8711 0.186676L20.2578 0.880035ZM15.3066 8.37906L15.2969 8.38589L14.7774 8.73257L14.7598 8.74429V16.1877L14.8135 16.1652L16.7197 15.3859L16.7295 15.382L16.7363 15.3732L17.7764 13.9865L17.7813 13.9796L17.7832 13.9699L18.1299 12.0646L18.0918 12.0568L18.1318 12.0646L18.1299 12.05L17.7832 10.1437L17.7813 10.1339L17.7754 10.1271L16.377 8.37906H15.3066Z" fill="black"/>
<path d="M17.3983 0.215302L8.5808 2.57795C8.56758 2.5815 8.55365 2.5815 8.54043 2.57795L0.156028 0.331361M4.40161 5.56981L0.156029 4.43221M4.40161 10.0641L0.242752 8.93772M4.40161 14.223L0.242752 13.0967M4.40161 18.6419L0.242752 17.5155M0.242752 21.7611L4.40161 22.8875L8.54018 24.0084C8.55346 24.0119 8.56746 24.012 8.58076 24.0084L17.3982 21.6458" stroke="black" stroke-width="0.31198" stroke-linecap="round"/>
<path d="M0.156029 0.359894V4.25889" stroke="black" stroke-width="0.31198" stroke-linecap="round"/>
<path d="M0.242554 8.93767V13.0966" stroke="black" stroke-width="0.31198" stroke-linecap="round"/>
<path d="M0.242554 17.6021V21.761" stroke="black" stroke-width="0.31198" stroke-linecap="round"/>
<path d="M4.40157 5.64519V9.97741M4.40157 14.3096V18.6418" stroke="black" stroke-width="0.31198" stroke-linecap="round"/>
<path d="M14.799 8.55419C18.438 7.25453 19.4778 15.659 14.799 16.1789" stroke="black" stroke-width="0.31198" stroke-linecap="round"/>
<path d="M17.1382 0.27322C24.503 -1.59784 24.3297 19.5135 17.3115 21.6744" stroke="black" stroke-width="0.31198" stroke-linecap="round"/>
<path d="M14.7121 8.59109V16.2158" stroke="black" stroke-width="0.31198" stroke-linecap="round"/>
</svg>
