<svg width="27" height="23" viewBox="0 0 27 23" fill="none" xmlns="http://www.w3.org/2000/svg">
<line x1="13.0759" y1="13.0759" x2="13.0759" y2="4.2197" stroke="black" stroke-width="1.56285" stroke-linecap="round"/>
<line x1="13.1536" y1="13.1545" x2="20.8232" y2="17.5826" stroke="black" stroke-width="1.56285" stroke-linecap="round"/>
<line x1="0.781427" y1="-0.781427" x2="9.6376" y2="-0.781427" transform="matrix(-0.866025 0.5 0.5 0.866025 13.9282 13.5447)" stroke="black" stroke-width="1.56285" stroke-linecap="round"/>
<path d="M12.8954 0.312571C12.9756 0.17365 13.1762 0.17365 13.2564 0.312571L15.5573 4.29785C15.6375 4.43677 15.5372 4.61042 15.3768 4.61042H10.775C10.6146 4.61042 10.5143 4.43677 10.5945 4.29785L12.8954 0.312571Z" fill="black"/>
<path d="M24.2971 19.3799C24.3773 19.5188 24.2771 19.6925 24.1166 19.6925L19.5148 19.6925C19.3544 19.6925 19.2542 19.5188 19.3344 19.3799L21.6353 15.3946C21.7155 15.2557 21.916 15.2557 21.9962 15.3946L24.2971 19.3799Z" fill="black"/>
<path d="M1.71727 19.4841C1.63706 19.623 1.73732 19.7967 1.89773 19.7967L6.49953 19.7967C6.65995 19.7967 6.7602 19.623 6.68 19.4841L4.3791 15.4988C4.29889 15.3599 4.09838 15.3599 4.01817 15.4988L1.71727 19.4841Z" fill="black"/>
</svg>
