<svg width="24" height="24" viewBox="0 0 24 24" fill="none" xmlns="http://www.w3.org/2000/svg">
<path d="M11.5501 0.779219C11.75 0.432899 12.2499 0.4329 12.4499 0.779219L15.4641 5.99999C15.664 6.34631 15.4141 6.77921 15.0142 6.77921H8.98576C8.58586 6.77921 8.33593 6.34631 8.53588 5.99999L11.5501 0.779219Z" fill="black"/>
<path d="M11.5501 23.2208C11.75 23.5671 12.2499 23.5671 12.4499 23.2208L15.4641 18C15.664 17.6537 15.4141 17.2208 15.0142 17.2208H8.98576C8.58586 17.2208 8.33593 17.6537 8.53588 18L11.5501 23.2208Z" fill="black"/>
<path d="M0.779219 11.5501C0.432899 11.7501 0.4329 12.2499 0.779219 12.4499L5.99999 15.4641C6.34631 15.664 6.77921 15.4141 6.77921 15.0142V8.98579C6.77921 8.58589 6.34631 8.33596 5.99999 8.53591L0.779219 11.5501Z" fill="black"/>
<path d="M23.2208 11.5501C23.5671 11.7501 23.5671 12.2499 23.2208 12.4499L18 15.4641C17.6537 15.664 17.2208 15.4141 17.2208 15.0142V8.98579C17.2208 8.58589 17.6537 8.33596 18 8.53591L23.2208 11.5501Z" fill="black"/>
</svg>
