<svg width="24" height="18" viewBox="0 0 24 18" fill="none" xmlns="http://www.w3.org/2000/svg">
<path d="M15.3348 2.19491e-07C16.8706 -8.57656e-05 18.3545 0.556199 19.5117 1.5659C20.669 2.57559 21.4212 3.97034 21.6293 5.49198L23.2514 13.8385C23.3959 14.5806 23.2957 15.3496 22.9659 16.0299C22.6362 16.7103 22.0946 17.2653 21.4226 17.6117C20.7506 17.9581 19.9843 18.0772 19.2388 17.951C18.4934 17.8249 17.8089 17.4604 17.2883 16.9122L13.2903 12.7045L9.96564 12.7056L6.02797 16.8518C5.50627 17.4013 4.82006 17.7664 4.0728 17.8919C3.32555 18.0174 2.55774 17.8966 1.88512 17.5477C1.21251 17.1988 0.671551 16.6406 0.343792 15.9575C0.0160329 15.2743 -0.0807598 14.5031 0.0680054 13.7601L1.79808 5.10658C2.08622 3.66628 2.86455 2.37032 4.00061 1.43928C5.13667 0.508226 6.56026 -0.00038573 8.0291 2.19491e-07H15.3348ZM7.39382 3.17639C7.11301 3.17639 6.8437 3.28794 6.64514 3.48651C6.44658 3.68507 6.33503 3.95438 6.33503 4.23519V5.29399H5.27623C4.99542 5.29399 4.72611 5.40554 4.52755 5.6041C4.32898 5.80266 4.21743 6.07197 4.21743 6.35278C4.21743 6.63359 4.32898 6.9029 4.52755 7.10147C4.72611 7.30003 4.99542 7.41158 5.27623 7.41158H6.33503V8.47038C6.33503 8.75119 6.44658 9.0205 6.64514 9.21906C6.8437 9.41762 7.11301 9.52917 7.39382 9.52917C7.67463 9.52917 7.94394 9.41762 8.14251 9.21906C8.34107 9.0205 8.45262 8.75119 8.45262 8.47038V7.41158H9.51142C9.79223 7.41158 10.0615 7.30003 10.2601 7.10147C10.4587 6.9029 10.5702 6.63359 10.5702 6.35278C10.5702 6.07197 10.4587 5.80266 10.2601 5.6041C10.0615 5.40554 9.79223 5.29399 9.51142 5.29399H8.45262V4.23519C8.45262 3.95438 8.34107 3.68507 8.14251 3.48651C7.94394 3.28794 7.67463 3.17639 7.39382 3.17639ZM17.9818 5.29399H13.7466C13.4658 5.29399 13.1965 5.40554 12.9979 5.6041C12.7994 5.80266 12.6878 6.07197 12.6878 6.35278C12.6878 6.63359 12.7994 6.9029 12.9979 7.10147C13.1965 7.30003 13.4658 7.41158 13.7466 7.41158H17.9818C18.2626 7.41158 18.5319 7.30003 18.7305 7.10147C18.929 6.9029 19.0406 6.63359 19.0406 6.35278C19.0406 6.07197 18.929 5.80266 18.7305 5.6041C18.5319 5.40554 18.2626 5.29399 17.9818 5.29399Z" fill="black"/>
</svg>
