<svg width="23" height="26" viewBox="0 0 23 26" fill="none" xmlns="http://www.w3.org/2000/svg">
<path d="M7.46093 7.69223C8.48053 7.69223 9.30761 8.88085 9.30761 10.3465C9.30744 11.812 8.48043 12.9998 7.46093 12.9998C6.44164 12.9995 5.6154 11.8118 5.61523 10.3465C5.61523 8.88106 6.44153 7.69258 7.46093 7.69223ZM8.38476 9.077C8.00247 9.077 7.69247 9.54168 7.69238 10.1151C7.69238 10.6886 8.00241 11.1541 8.38476 11.1541C8.76696 11.1539 9.07714 10.6885 9.07714 10.1151C9.07704 9.54183 8.76691 9.07725 8.38476 9.077Z" fill="black"/>
<path d="M15.3073 7.69223C16.3269 7.69223 17.154 8.88085 17.154 10.3465C17.1539 11.812 16.3268 12.9998 15.3073 12.9998C14.2881 12.9995 13.4618 11.8118 13.4616 10.3465C13.4616 8.88106 14.2879 7.69258 15.3073 7.69223ZM16.2312 9.077C15.8489 9.077 15.5389 9.54168 15.5388 10.1151C15.5388 10.6886 15.8488 11.1541 16.2312 11.1541C16.6134 11.1539 16.9236 10.6885 16.9236 10.1151C16.9235 9.54183 16.6133 9.07724 16.2312 9.077Z" fill="black"/>
<path d="M1.02067 11.4778C1.02067 8.69892 2.12458 6.03385 4.08955 4.06888C6.05453 2.10391 8.7196 1 11.4985 1C14.2774 1 16.9424 2.10391 18.9074 4.06888C20.8724 6.03385 21.9763 8.69892 21.9763 11.4778V21.9556C22.0471 22.5205 21.9351 23.0932 21.6566 23.5898C21.3782 24.0864 20.9481 24.4808 20.4292 24.7151C19.9104 24.9494 19.3301 25.0114 18.7735 24.8919C18.2168 24.7724 17.7131 24.4778 17.3361 24.0512C17.1051 23.7557 16.8098 23.5166 16.4727 23.3522C16.1355 23.1878 15.7654 23.1024 15.3902 23.1024C15.0151 23.1024 14.645 23.1878 14.3078 23.3522C13.9706 23.5166 13.6754 23.7557 13.4444 24.0512C13.2134 24.3467 12.9181 24.5858 12.5809 24.7502C12.2438 24.9146 11.8736 25 11.4985 25C11.1234 25 10.7532 24.9146 10.416 24.7502C10.0789 24.5858 9.78361 24.3467 9.55261 24.0512C9.32161 23.7557 9.02633 23.5166 8.68917 23.3522C8.35201 23.1878 7.98183 23.1024 7.60673 23.1024C7.23162 23.1024 6.86145 23.1878 6.52429 23.3522C6.18713 23.5166 5.89185 23.7557 5.66085 24.0512C5.28385 24.4778 4.78013 24.7724 4.2235 24.8919C3.66686 25.0114 3.0866 24.9494 2.56775 24.7151C2.0489 24.4808 1.61874 24.0864 1.34033 23.5898C1.06192 23.0932 0.949896 22.5205 1.02067 21.9556V11.4778Z" stroke="black" stroke-width="2" stroke-linecap="round" stroke-linejoin="round"/>
</svg>
