<svg width="24" height="24" viewBox="0 0 24 24" fill="none" xmlns="http://www.w3.org/2000/svg">
<circle cx="12.0001" cy="12" r="3.71014" stroke="black" stroke-width="0.57971"/>
<circle cx="4.00006" cy="20.0001" r="3.71014" stroke="black" stroke-width="0.57971"/>
<circle cx="4" cy="4" r="3.71014" stroke="black" stroke-width="0.57971"/>
<circle cx="20.0001" cy="4.00006" r="3.71014" stroke="black" stroke-width="0.57971"/>
<circle cx="20.0001" cy="20.0001" r="3.71014" stroke="black" stroke-width="0.57971"/>
<path d="M4.00007 16.058V7.94202" stroke="black" stroke-width="0.57971"/>
<path d="M20.058 16.116V8.00003" stroke="black" stroke-width="0.57971"/>
<path d="M7.88412 3.94202H16.0001" stroke="black" stroke-width="0.57971"/>
<path d="M8.00006 19.942H16.116" stroke="black" stroke-width="0.57971"/>
<path d="M17.2172 17.2171L14.7827 14.7827" stroke="black" stroke-width="0.57971"/>
<path d="M6.72456 17.1591L9.15905 14.7246" stroke="black" stroke-width="0.57971"/>
<path d="M9.27514 9.15913L6.84064 6.72464" stroke="black" stroke-width="0.57971"/>
<path d="M14.7246 9.15913L17.159 6.72464" stroke="black" stroke-width="0.57971"/>
<path fill-rule="evenodd" clip-rule="evenodd" d="M18.5871 1.82982C18.5906 1.77583 18.6091 1.72389 18.6406 1.67991C18.6722 1.63593 18.7154 1.60168 18.7654 1.58106C18.8154 1.56043 18.8702 1.55426 18.9236 1.56325C18.977 1.57223 19.0267 1.59601 19.0672 1.63188L21.7112 3.97722C21.9036 4.14779 21.7941 4.4661 21.5372 4.48205L20.709 4.53279L21.2648 5.86103C21.319 5.99053 21.3197 6.13619 21.2669 6.26622C21.214 6.39625 21.1118 6.50008 20.9827 6.55504L20.752 6.65335C20.6877 6.68075 20.6186 6.69519 20.5487 6.69585C20.4788 6.69651 20.4095 6.68336 20.3447 6.65718C20.2799 6.63099 20.2208 6.59227 20.171 6.54324C20.1212 6.49421 20.0815 6.43583 20.0543 6.37144L19.4629 4.97333L18.8456 5.50659C18.6517 5.67398 18.352 5.52519 18.3682 5.26958L18.5871 1.82982Z" fill="black"/>
<g clip-path="url(#clip0_188_127)">
<path d="M3.36003 1.69562H2.07984C1.86773 1.69562 1.69578 1.86757 1.69578 2.07968V3.35987C1.69578 3.57198 1.86773 3.74393 2.07984 3.74393H3.36003C3.57214 3.74393 3.74409 3.57198 3.74409 3.35987V2.07968C3.74409 1.86757 3.57214 1.69562 3.36003 1.69562Z" fill="black"/>
<path d="M5.92043 1.69562H4.64024C4.42813 1.69562 4.25618 1.86757 4.25618 2.07968V3.35987C4.25618 3.57198 4.42813 3.74393 4.64024 3.74393H5.92043C6.13254 3.74393 6.30449 3.57198 6.30449 3.35987V2.07968C6.30449 1.86757 6.13254 1.69562 5.92043 1.69562Z" fill="black"/>
<path d="M3.36003 4.25601H2.07984C1.86773 4.25601 1.69578 4.42796 1.69578 4.64007V5.92026C1.69578 6.13237 1.86773 6.30432 2.07984 6.30432H3.36003C3.57214 6.30432 3.74409 6.13237 3.74409 5.92026V4.64007C3.74409 4.42796 3.57214 4.25601 3.36003 4.25601Z" fill="black"/>
<path d="M5.92043 4.25601H4.64024C4.42813 4.25601 4.25618 4.42796 4.25618 4.64007V5.92026C4.25618 6.13237 4.42813 6.30432 4.64024 6.30432H5.92043C6.13254 6.30432 6.30449 6.13237 6.30449 5.92026V4.64007C6.30449 4.42796 6.13254 4.25601 5.92043 4.25601Z" fill="black"/>
</g>
<g clip-path="url(#clip1_188_127)">
<path d="M12.4308 9.52461C12.2871 9.03765 11.597 9.03765 11.4534 9.52461L11.4186 9.64287C11.3972 9.71577 11.3596 9.78295 11.3088 9.83947C11.258 9.89599 11.1952 9.94042 11.125 9.9695C11.0548 9.99859 10.979 10.0116 10.9031 10.0076C10.8272 10.0035 10.7532 9.98254 10.6864 9.94618L10.5786 9.88705C10.1324 9.64426 9.64435 10.1323 9.88748 10.5782L9.94627 10.6863C10.1014 10.9716 9.95427 11.3267 9.64296 11.4185L9.5247 11.4533C9.03775 11.597 9.03775 12.287 9.5247 12.4307L9.64296 12.4655C9.71587 12.4869 9.78304 12.5245 9.83956 12.5753C9.89608 12.6261 9.94051 12.6889 9.96959 12.7591C9.99868 12.8293 10.0117 12.9051 10.0076 12.981C10.0036 13.0569 9.98264 13.1309 9.94627 13.1977L9.88714 13.3055C9.64435 13.7517 10.1324 14.2397 10.5783 13.9966L10.6864 13.9378C10.7532 13.9015 10.8272 13.8805 10.9031 13.8765C10.979 13.8724 11.0548 13.8854 11.125 13.9145C11.1952 13.9436 11.258 13.988 11.3088 14.0445C11.3596 14.1011 11.3972 14.1682 11.4186 14.2411L11.4534 14.3594C11.597 14.8463 12.2871 14.8463 12.4308 14.3594L12.4656 14.2411C12.487 14.1682 12.5245 14.1011 12.5753 14.0445C12.6262 13.988 12.689 13.9436 12.7592 13.9145C12.8294 13.8854 12.9052 13.8724 12.9811 13.8765C13.057 13.8805 13.131 13.9015 13.1977 13.9378L13.3056 13.997C13.7518 14.2397 14.2398 13.7517 13.9967 13.3058L13.9379 13.1977C13.9016 13.1309 13.8806 13.0569 13.8765 12.981C13.8725 12.9051 13.8855 12.8293 13.9146 12.7591C13.9437 12.6889 13.9881 12.6261 14.0446 12.5753C14.1011 12.5245 14.1683 12.4869 14.2412 12.4655L14.3595 12.4307C14.8464 12.287 14.8464 11.597 14.3595 11.4533L14.2412 11.4185C14.1683 11.3971 14.1011 11.3596 14.0446 11.3087C13.9881 11.2579 13.9437 11.1951 13.9146 11.1249C13.8855 11.0547 13.8725 10.9789 13.8765 10.903C13.8806 10.8271 13.9016 10.7531 13.9379 10.6863L13.997 10.5785C14.2398 10.1323 13.7518 9.64426 13.3059 9.88739L13.1977 9.94618C13.131 9.98254 13.057 10.0035 12.9811 10.0076C12.9052 10.0116 12.8294 9.99859 12.7592 9.9695C12.689 9.94042 12.6262 9.89599 12.5753 9.83947C12.5245 9.78295 12.487 9.71577 12.4656 9.64287L12.4308 9.52461ZM11.9421 12.9611C11.6718 12.9611 11.4126 12.8538 11.2215 12.6626C11.0303 12.4715 10.923 12.2123 10.923 11.942C10.923 11.6717 11.0303 11.4125 11.2215 11.2214C11.4126 11.0302 11.6718 10.9229 11.9421 10.9229C12.2123 10.9229 12.4714 11.0302 12.6625 11.2213C12.8535 11.4123 12.9609 11.6715 12.9609 11.9417C12.9609 12.2119 12.8535 12.471 12.6625 12.662C12.4714 12.8531 12.2123 12.9604 11.9421 12.9604V12.9611Z" fill="black"/>
</g>
<g clip-path="url(#clip2_188_127)">
<mask id="mask0_188_127" style="mask-type:luminance" maskUnits="userSpaceOnUse" x="17" y="17" width="6" height="6">
<path d="M22.1836 19.9421C22.1836 21.116 21.232 22.0677 20.058 22.0677H17.9324V19.9421C17.9324 18.7681 18.884 17.8165 20.058 17.8165C21.232 17.8165 22.1836 18.7681 22.1836 19.9421Z" fill="white" stroke="white" stroke-width="0.231884" stroke-linecap="round" stroke-linejoin="round"/>
<path d="M18.9952 19.3042H20.9082M18.9952 20.1544H20.9082M18.9952 21.0047H20.058" stroke="black" stroke-width="0.231884" stroke-linecap="round" stroke-linejoin="round"/>
</mask>
<g mask="url(#mask0_188_127)">
<path d="M17.5072 17.3912H22.6087V22.4926H17.5072V17.3912Z" fill="black"/>
</g>
</g>
<g clip-path="url(#clip3_188_127)">
<path d="M2.81357 21.4977H3.16912C3.23209 21.4977 3.2849 21.5191 3.32757 21.5617C3.37024 21.6044 3.3915 21.6571 3.39135 21.7199C3.3912 21.7828 3.36987 21.8356 3.32735 21.8784C3.28483 21.9212 3.23209 21.9425 3.16912 21.9422H2.28024C2.21727 21.9422 2.16453 21.9208 2.12201 21.8782C2.0795 21.8355 2.05816 21.7828 2.05801 21.7199V20.8311C2.05801 20.7681 2.07935 20.7154 2.12201 20.6728C2.16468 20.6303 2.21742 20.609 2.28024 20.6088C2.34305 20.6087 2.39587 20.63 2.43868 20.6728C2.4815 20.7157 2.50275 20.7684 2.50246 20.8311V21.1866L3.03579 20.6533C3.07653 20.6125 3.12838 20.5922 3.19135 20.5922C3.25431 20.5922 3.30616 20.6125 3.3469 20.6533C3.38764 20.694 3.40801 20.7459 3.40801 20.8088C3.40801 20.8718 3.38764 20.9237 3.3469 20.9644L2.81357 21.4977ZM5.30246 21.4977L4.76912 20.9644C4.72838 20.9237 4.70801 20.8718 4.70801 20.8088C4.70801 20.7459 4.72838 20.694 4.76912 20.6533C4.80987 20.6125 4.86172 20.5922 4.92468 20.5922C4.98764 20.5922 5.0395 20.6125 5.08024 20.6533L5.61357 21.1866V20.8311C5.61357 20.7681 5.6349 20.7154 5.67757 20.6728C5.72024 20.6303 5.77298 20.609 5.83579 20.6088C5.89861 20.6087 5.95142 20.63 5.99424 20.6728C6.03705 20.7157 6.05831 20.7684 6.05801 20.8311V21.7199C6.05801 21.7829 6.03668 21.8357 5.99401 21.8784C5.95135 21.9211 5.89861 21.9423 5.83579 21.9422H4.9469C4.88394 21.9422 4.8312 21.9208 4.78868 21.8782C4.74616 21.8355 4.72483 21.7828 4.72468 21.7199C4.72453 21.6571 4.74587 21.6044 4.78868 21.5617C4.8315 21.5191 4.88424 21.4977 4.9469 21.4977H5.30246ZM2.50246 18.6977V19.0533C2.50246 19.1162 2.48112 19.1691 2.43846 19.2117C2.39579 19.2544 2.34305 19.2757 2.28024 19.2755C2.21742 19.2754 2.16468 19.254 2.12201 19.2115C2.07935 19.169 2.05801 19.1162 2.05801 19.0533V18.1644C2.05801 18.1014 2.07935 18.0487 2.12201 18.0062C2.16468 17.9637 2.21742 17.9423 2.28024 17.9422H3.16912C3.23209 17.9422 3.2849 17.9635 3.32757 18.0062C3.37024 18.0488 3.3915 18.1016 3.39135 18.1644C3.3912 18.2272 3.36987 18.28 3.32735 18.3228C3.28483 18.3657 3.23209 18.3869 3.16912 18.3866H2.81357L3.3469 18.9199C3.38764 18.9607 3.40801 19.0125 3.40801 19.0755C3.40801 19.1385 3.38764 19.1903 3.3469 19.2311C3.30616 19.2718 3.25431 19.2922 3.19135 19.2922C3.12838 19.2922 3.07653 19.2718 3.03579 19.2311L2.50246 18.6977ZM5.61357 18.6977L5.08024 19.2311C5.0395 19.2718 4.98764 19.2922 4.92468 19.2922C4.86172 19.2922 4.80987 19.2718 4.76912 19.2311C4.72838 19.1903 4.70801 19.1385 4.70801 19.0755C4.70801 19.0125 4.72838 18.9607 4.76912 18.9199L5.30246 18.3866H4.9469C4.88394 18.3866 4.8312 18.3654 4.78868 18.3228C4.74616 18.2803 4.72483 18.2275 4.72468 18.1644C4.72453 18.1013 4.74587 18.0485 4.78868 18.0062C4.8315 17.9638 4.88424 17.9425 4.9469 17.9422H5.83579C5.89875 17.9422 5.95157 17.9635 5.99424 18.0062C6.0369 18.0488 6.05816 18.1016 6.05801 18.1644V19.0533C6.05801 19.1162 6.03668 19.1691 5.99401 19.2117C5.95135 19.2544 5.89861 19.2757 5.83579 19.2755C5.77298 19.2754 5.72024 19.254 5.67757 19.2115C5.6349 19.169 5.61357 19.1162 5.61357 19.0533V18.6977Z" fill="black"/>
</g>
<defs>
<clipPath id="clip0_188_127">
<rect width="6.14493" height="6.14493" fill="white" transform="translate(0.927597 0.927521)"/>
</clipPath>
<clipPath id="clip1_188_127">
<rect width="5.56522" height="5.56522" fill="white" transform="translate(9.15948 9.15939)"/>
</clipPath>
<clipPath id="clip2_188_127">
<rect width="5.10145" height="5.10145" fill="white" transform="translate(17.5073 17.3913)"/>
</clipPath>
<clipPath id="clip3_188_127">
<rect width="5.33333" height="5.33333" fill="white" transform="translate(1.39137 17.2755)"/>
</clipPath>
</defs>
</svg>
