<svg width="17" height="24" viewBox="0 0 17 24" fill="none" xmlns="http://www.w3.org/2000/svg">
<rect x="2.92184" y="18.5739" width="10.8521" height="1.87826" fill="black"/>
<rect y="20.8696" width="16.6956" height="3.13043" fill="black"/>
<rect x="7.72185" y="5.63483" width="1.66956" height="12.5217" fill="black"/>
<path d="M8.4518 0C9.89242 0 11.061 1.16783 11.0612 2.6084C11.0612 4.04914 9.89254 5.21777 8.4518 5.21777C7.01122 5.21759 5.8434 4.04902 5.8434 2.6084C5.8436 1.16794 7.01134 0.00018598 8.4518 0ZM9.39125 0.834961C8.93021 0.834961 8.55629 1.20889 8.55629 1.66992C8.55646 2.13082 8.93032 2.50391 9.39125 2.50391C9.85215 2.50387 10.226 2.13079 10.2262 1.66992C10.2262 1.20891 9.85226 0.834996 9.39125 0.834961Z" fill="black"/>
</svg>
