<svg width="23" height="24" viewBox="0 0 23 24" fill="none" xmlns="http://www.w3.org/2000/svg">
<path d="M22.7244 6.636C20.6724 2.5428 16.5636 0 12 0C5.3832 0 0 5.3832 0 12C0 18.6168 5.3832 24 12 24C16.5636 24 20.6724 21.4572 22.7244 17.364C22.8619 17.0898 22.8892 16.7733 22.8006 16.4796C22.7119 16.1859 22.5142 15.9372 22.248 15.7848L15.6204 12L22.2468 8.2164C22.8 7.8996 23.01 7.206 22.7244 6.636ZM12.6048 10.9584C12.421 11.0631 12.2681 11.2147 12.1618 11.3976C12.0555 11.5806 11.9995 11.7884 11.9995 12C11.9995 12.2116 12.0555 12.4194 12.1618 12.6024C12.2681 12.7853 12.421 12.9369 12.6048 13.0416L20.0124 17.2716C19.1435 18.6038 17.9554 19.6976 16.556 20.4536C15.1567 21.2095 13.5905 21.6036 12 21.6C6.7068 21.6 2.4 17.2932 2.4 12C2.4 6.7068 6.7068 2.4 12 2.4C13.5904 2.39625 15.1565 2.79016 16.5558 3.5459C17.9552 4.30164 19.1434 5.39523 20.0124 6.7272L12.6048 10.9584Z" fill="black"/>
<path d="M11.3995 8.39993C12.3936 8.39993 13.1995 7.59404 13.1995 6.59993C13.1995 5.60581 12.3936 4.79993 11.3995 4.79993C10.4054 4.79993 9.59953 5.60581 9.59953 6.59993C9.59953 7.59404 10.4054 8.39993 11.3995 8.39993Z" fill="black"/>
</svg>
