<svg width="19" height="24" viewBox="0 0 19 24" fill="none" xmlns="http://www.w3.org/2000/svg">
<path d="M6.55847 5.33333C6.55847 4.97971 6.69949 4.64057 6.9505 4.39052C7.20151 4.14048 7.54195 4 7.89694 4C8.25192 4 8.59236 4.14048 8.84337 4.39052C9.09439 4.64057 9.2354 4.97971 9.2354 5.33333V11.2933L10.8549 11.4667L17.467 14.3867C18.1763 14.7067 18.6046 15.4133 18.6046 16.1867V22C18.5645 23.0933 17.6945 23.96 16.597 24H7.89694C7.38832 24 6.90647 23.8 6.55847 23.4267L0 17.8267L0.990464 16.8C1.24477 16.52 1.60616 16.3733 1.98093 16.3733H2.27539L6.55847 18.6667V5.33333ZM7.89694 0C9.31687 0 10.6786 0.561903 11.6827 1.5621C12.6867 2.56229 13.2508 3.91885 13.2508 5.33333C13.2508 7.33333 12.18 9.02667 10.5739 9.94667V8.32C11.3903 7.58667 11.9123 6.52 11.9123 5.33333C11.9123 4.27247 11.4893 3.25505 10.7362 2.50491C9.98322 1.75476 8.96189 1.33333 7.89694 1.33333C6.83199 1.33333 5.81066 1.75476 5.05763 2.50491C4.30459 3.25505 3.88155 4.27247 3.88155 5.33333C3.88155 6.52 4.40355 7.58667 5.22001 8.32V9.94667C3.61385 9.02667 2.54308 7.33333 2.54308 5.33333C2.54308 3.91885 3.10715 2.56229 4.11119 1.5621C5.11523 0.561903 6.47701 0 7.89694 0Z" fill="black"/>
</svg>
