<svg width="24" height="24" viewBox="0 0 24 24" fill="none" xmlns="http://www.w3.org/2000/svg">
<path d="M2.4 7.2H7.2V2.4C7.2 1.76348 7.45286 1.15303 7.90294 0.702944C8.35303 0.252856 8.96348 0 9.6 0H14.4C15.0365 0 15.647 0.252856 16.0971 0.702944C16.5471 1.15303 16.8 1.76348 16.8 2.4V7.2H21.6C22.2365 7.2 22.847 7.45286 23.2971 7.90294C23.7471 8.35303 24 8.96348 24 9.6V14.4C24 15.0365 23.7471 15.647 23.2971 16.0971C22.847 16.5471 22.2365 16.8 21.6 16.8H16.8V21.6C16.8 22.2365 16.5471 22.847 16.0971 23.2971C15.647 23.7471 15.0365 24 14.4 24H9.6C8.96348 24 8.35303 23.7471 7.90294 23.2971C7.45286 22.847 7.2 22.2365 7.2 21.6V16.8H2.4C1.76348 16.8 1.15303 16.5471 0.702944 16.0971C0.252856 15.647 0 15.0365 0 14.4V9.6C0 8.96348 0.252856 8.35303 0.702944 7.90294C1.15303 7.45286 1.76348 7.2 2.4 7.2ZM2.4 9.6V14.4H9.6V21.6H14.4V14.4H21.6V9.6H14.4V2.4H9.6V9.6H2.4Z" fill="black"/>
</svg>
