<svg width="24" height="18" viewBox="0 0 24 18" fill="none" xmlns="http://www.w3.org/2000/svg">
<g clip-path="url(#clip0_357_376)">
<path d="M22.5005 4.29248V16.5044H1.49953V4.29248H22.5005ZM24 2.79684H0V18H24V2.79684Z" fill="black"/>
<path d="M17.1846 12.6456C18.8824 12.6456 20.2587 11.2729 20.2587 9.57958C20.2587 7.88624 18.8824 6.51352 17.1846 6.51352C15.4869 6.51352 14.1106 7.88624 14.1106 9.57958C14.1106 11.2729 15.4869 12.6456 17.1846 12.6456Z" stroke="black" stroke-width="1.5" stroke-miterlimit="10"/>
<path d="M4.55111 8.87661C5.40412 8.87661 6.09563 8.1869 6.09563 7.3361C6.09563 6.4853 5.40412 5.79559 4.55111 5.79559C3.6981 5.79559 3.00659 6.4853 3.00659 7.3361C3.00659 8.1869 3.6981 8.87661 4.55111 8.87661Z" fill="black"/>
<path d="M7.40772 0H1.68701V1.50312H7.40772V0Z" fill="black"/>
</g>
<defs>
<clipPath id="clip0_357_376">
<rect width="24" height="18" fill="white"/>
</clipPath>
</defs>
</svg>
