<svg width="24" height="18" viewBox="0 0 24 18" fill="none" xmlns="http://www.w3.org/2000/svg">
<path d="M24 2.79684H0V18H24V2.79684Z" fill="black"/>
<path d="M17.1846 12.6457C18.8824 12.6457 20.2587 11.273 20.2587 9.57964C20.2587 7.8863 18.8824 6.51358 17.1846 6.51358C15.4869 6.51358 14.1106 7.8863 14.1106 9.57964C14.1106 11.273 15.4869 12.6457 17.1846 12.6457Z" stroke="white" stroke-width="1.5" stroke-miterlimit="10"/>
<path d="M4.55111 8.87661C5.40412 8.87661 6.09563 8.1869 6.09563 7.3361C6.09563 6.4853 5.40412 5.79559 4.55111 5.79559C3.6981 5.79559 3.00659 6.4853 3.00659 7.3361C3.00659 8.1869 3.6981 8.87661 4.55111 8.87661Z" fill="white"/>
<path d="M7.71423 0H1.71423V1.71428H7.71423V0Z" fill="black"/>
</svg>
