<svg width="20" height="18" viewBox="0 0 20 18" fill="none" xmlns="http://www.w3.org/2000/svg">
<path d="M19.2955 4.81085H4.05664V14.0727H19.2955V4.81085Z" fill="white"/>
<path d="M18.591 5.5227V13.3527H4.76918V5.5227H18.591ZM19.9999 4.09088H3.35217V14.7763H19.9999V4.09088Z" fill="black"/>
<path d="M15.9433 8.02631H0.704468V17.2881H15.9433V8.02631Z" fill="white"/>
<path d="M15.2389 8.73815V16.5682H1.417V8.73815H15.2389ZM16.6478 7.30634H0V17.9918H16.6478V7.30634Z" fill="black"/>
<path d="M1 16.5L5.14169 11.6263L9.25505 15.5454L12.421 12.6573L16 16.5" stroke="black" stroke-width="1.5" stroke-miterlimit="10"/>
<path d="M9.49794 12.3627C10.1464 12.3627 10.672 11.8316 10.672 11.1764C10.672 10.5211 10.1464 9.98999 9.49794 9.98999C8.84951 9.98999 8.32385 10.5211 8.32385 11.1764C8.32385 11.8316 8.84951 12.3627 9.49794 12.3627Z" fill="black"/>
<path d="M6.91504 2.35638H17.9272" stroke="black" stroke-width="1.5" stroke-miterlimit="10"/>
</svg>
