<svg width="26" height="19" viewBox="0 0 26 19" fill="none" xmlns="http://www.w3.org/2000/svg">
<path d="M7.9385 0H1.9054V1.57236H7.9385V0Z" fill="black"/>
<path d="M12.6578 9.87218H16.8969C16.8969 9.87218 16.336 7.63489 14.4288 6.97778L12.6578 9.87218Z" fill="black"/>
<path d="M13.5232 10.2633L15.6948 13.8148C15.6948 13.8148 17.3776 12.1955 16.9769 10.2633H13.5232Z" fill="black"/>
<path d="M13.5714 11.1395L11.552 14.777C11.552 14.777 13.8358 15.3637 15.3343 14.0417L13.5714 11.1473V11.1395Z" fill="black"/>
<path d="M12.826 11.5775L8.59497 11.734C8.59497 11.734 9.24405 13.9478 11.1673 14.5345L12.826 11.5775Z" fill="black"/>
<path d="M12.0568 11.2646L9.82107 7.75223C9.82107 7.75223 8.17032 9.40282 8.61106 11.3272L12.0648 11.2646H12.0568Z" fill="black"/>
<path d="M11.9045 10.412L14.0842 6.86049C14.0842 6.86049 11.8244 6.17991 10.2778 7.43937L11.9126 10.4042L11.9045 10.412Z" fill="black"/>
<path d="M0.75 7.34555V18.0001H11.8164" stroke="black" stroke-width="1.5" stroke-miterlimit="10"/>
<path d="M24.75 14.3077V3.65314H13.6836" stroke="black" stroke-width="1.5" stroke-miterlimit="10"/>
</svg>
