<svg width="24" height="24" viewBox="0 0 24 24" fill="none" xmlns="http://www.w3.org/2000/svg">
<rect width="24" height="24" fill="white"/>
<path d="M8.2312 12.4546V5.69141H19.2572V15.978L20.4811 18.2033H12.493H8.2312V12.4546Z" fill="black" stroke="#070707" stroke-width="0.809555"/>
<g clip-path="url(#clip0_225_424)">
<rect x="2.04951" y="12.2807" width="10.5248" height="6.74724" fill="black" stroke="#F5F5F5" stroke-width="0.218357"/>
<path d="M9.53971 16.6143C10.2688 16.6143 10.8598 16.0248 10.8598 15.2976C10.8598 14.5705 10.2688 13.981 9.53971 13.981C8.81064 13.981 8.2196 14.5705 8.2196 15.2976C8.2196 16.0248 8.81064 16.6143 9.53971 16.6143Z" stroke="white" stroke-width="0.9" stroke-miterlimit="10"/>
<path d="M4.11322 14.9999C4.47954 14.9999 4.77649 14.7037 4.77649 14.3383C4.77649 13.9729 4.47954 13.6768 4.11322 13.6768C3.74691 13.6768 3.44995 13.9729 3.44995 14.3383C3.44995 14.7037 3.74691 14.9999 4.11322 14.9999Z" fill="white"/>
<path d="M5.34193 11.1924H2.88525V11.8379H5.34193V11.1924Z" fill="black"/>
</g>
<mask id="path-6-inside-1_225_424" fill="white">
<path d="M20.9993 4.60303H6.49927V5.30578H20.9993V4.60303Z"/>
</mask>
<path d="M20.9993 4.60303H6.49927V5.30578H20.9993V4.60303Z" fill="black"/>
<path d="M6.49927 4.60303V3.70303H5.59927V4.60303H6.49927ZM20.9993 4.60303H21.8993V3.70303H20.9993V4.60303ZM20.9993 5.30578V6.20578H21.8993V5.30578H20.9993ZM6.49927 5.30578H5.59927V6.20578H6.49927V5.30578ZM6.49927 4.60303V5.50303H20.9993V4.60303V3.70303H6.49927V4.60303ZM20.9993 4.60303H20.0993V5.30578H20.9993H21.8993V4.60303H20.9993ZM20.9993 5.30578V4.40578H6.49927V5.30578V6.20578H20.9993V5.30578ZM6.49927 5.30578H7.39927V4.60303H6.49927H5.59927V5.30578H6.49927Z" fill="black" mask="url(#path-6-inside-1_225_424)"/>
<path d="M15 15.6001H20.1153" stroke="white" stroke-width="0.9"/>
<defs>
<clipPath id="clip0_225_424">
<rect width="10.3065" height="7.72985" fill="white" transform="translate(2.40015 11.1943)"/>
</clipPath>
</defs>
</svg>
