<svg width="24" height="24" viewBox="0 0 24 24" fill="none" xmlns="http://www.w3.org/2000/svg">
<rect x="0.273973" y="0.273973" width="23.4521" height="23.4521" stroke="black" stroke-width="0.547945"/>
<path d="M12.4553 13.6112L12.0396 14.6067L11.5599 13.6112L11.7198 11.9734L11.2721 11.4274V11.1063L11.4959 10.8494H12.5512L12.775 11.1063V11.4274L12.4233 11.9734L12.4553 13.6112Z" fill="black"/>
<path d="M6.48132 13.5068V17.8927V18.693H17.5088C17.5516 17.818 17.6114 15.5557 17.5088 13.5068C17.4062 11.458 15.1794 11.0738 14.0788 11.1378C13.6193 12.3757 12.6298 15.0307 12.3477 15.7478C12.0656 16.4649 11.76 16.0465 11.6425 15.7478L9.87933 11.1378C7.18657 11.0354 6.49201 12.6745 6.48132 13.5068Z" fill="black"/>
<ellipse cx="11.953" cy="7.13884" rx="2.93542" ry="2.9589" fill="black"/>
</svg>
