<svg width="24" height="24" viewBox="0 0 24 24" fill="none" xmlns="http://www.w3.org/2000/svg">
<rect x="0.164384" y="0.164384" width="23.6712" height="23.6712" stroke="black" stroke-width="0.328767"/>
<path d="M12.8309 14.3626L12.4152 15.3582L11.9355 14.3626L12.0954 12.7248L11.6477 12.1789V11.8577L11.8715 11.6008H12.9268L13.1506 11.8577V12.1789L12.7989 12.7248L12.8309 14.3626Z" fill="black"/>
<path d="M6.85718 14.258V18.6439V19.4442H17.8847C17.9274 18.5692 17.9873 16.3069 17.8847 14.258C17.7821 12.2092 15.5552 11.825 14.4546 11.889C13.9951 13.1269 13.0057 15.7819 12.7236 16.499C12.4415 17.2161 12.1358 16.7978 12.0183 16.499L10.2552 11.889C7.56243 11.7866 6.86786 13.4257 6.85718 14.258Z" fill="black"/>
<ellipse cx="12.3287" cy="7.89042" rx="2.93542" ry="2.9589" fill="black"/>
<path d="M6.22457 11.8931L5.95176 12.5402L5.63699 11.8931L5.74191 10.8285L5.44812 10.4736V10.2649L5.59502 10.0979H6.28753L6.43442 10.2649V10.4736L6.20358 10.8285L6.22457 11.8931Z" fill="black"/>
<path d="M2.30139 11.8027V14.6903V15.2172H9.54403C9.57211 14.6411 9.61141 13.1516 9.54403 11.8027C9.47666 10.4537 8.0141 10.2008 7.29124 10.243C6.98946 11.058 6.33959 12.806 6.15431 13.2781C5.96903 13.7502 5.76832 13.4748 5.69112 13.2781L4.53314 10.243C2.76458 10.1755 2.30841 11.2547 2.30139 11.8027Z" fill="black"/>
<ellipse cx="5.89431" cy="7.65556" rx="1.94912" ry="1.92564" fill="black"/>
<path d="M19.1405 11.8931L18.8677 12.5402L18.5529 11.8931L18.6578 10.8285L18.364 10.4736V10.2649L18.5109 10.0979H19.2034L19.3503 10.2649V10.4736L19.1195 10.8285L19.1405 11.8931Z" fill="black"/>
<path d="M15.2173 11.8027V14.6903V15.2172H22.5067C22.5349 14.6411 22.5745 13.1516 22.5067 11.8027C22.4388 10.4537 20.9668 10.2008 20.2393 10.243C19.9356 11.058 19.2815 12.806 19.0951 13.2781C18.9086 13.7502 18.7066 13.4748 18.6289 13.2781L17.4634 10.243C15.6835 10.1755 15.2243 11.2547 15.2173 11.8027Z" fill="black"/>
<circle cx="18.8337" cy="7.65556" r="1.92564" fill="black"/>
</svg>
