<svg width="24" height="24" viewBox="0 0 24 24" fill="none" xmlns="http://www.w3.org/2000/svg">
<rect x="0.167509" y="0.167509" width="23.665" height="23.665" stroke="black" stroke-width="0.335018"/>
<rect x="5.77979" y="13.7374" width="12.4721" height="6.50445" fill="black"/>
<rect x="3.60083" y="11.2429" width="16.8295" height="2.17868" fill="black"/>
<path d="M12.3036 9.44734L12.0416 10.0748L11.7392 9.44734L11.84 8.41508L11.5579 8.07099V7.86859L11.6989 7.70667H12.364L12.5051 7.86859V8.07099L12.2834 8.41508L12.3036 9.44734Z" fill="black"/>
<path d="M8.49512 9.38214V12.1842V12.6955H15.5318C15.5591 12.1364 15.5972 10.6911 15.5318 9.38214C15.4663 8.07316 14.0454 7.82773 13.343 7.86864C13.0499 8.65947 12.4185 10.3557 12.2385 10.8138C12.0584 11.272 11.8634 11.0047 11.7884 10.8138L10.6634 7.86864C8.94514 7.80319 8.50194 8.85037 8.49512 9.38214Z" fill="black"/>
<circle cx="12" cy="5.33851" r="1.86293" fill="black"/>
<rect x="8.49512" y="12.9795" width="7.00965" height="0.44205" fill="black"/>
<rect x="3.56946" y="10.9904" width="16.8295" height="0.2526" fill="#DDDDDD"/>
</svg>
