<svg width="24" height="24" viewBox="0 0 24 24" fill="none" xmlns="http://www.w3.org/2000/svg">
<g clip-path="url(#clip0_532_139)">
<path d="M11.7295 5.78668H9.84497V20.972H16.0788V5.78668H14.1215" stroke="#1D1D1B" stroke-width="0.684242" stroke-linecap="round" stroke-linejoin="round"/>
<path d="M12.9889 9.35638C13.3241 9.35638 13.5959 9.08464 13.5959 8.74942C13.5959 8.4142 13.3241 8.14246 12.9889 8.14246C12.6537 8.14246 12.382 8.4142 12.382 8.74942C12.382 9.08464 12.6537 9.35638 12.9889 9.35638Z" fill="#1D1D1B" stroke="#1D1D1B" stroke-width="0.684242" stroke-linecap="round" stroke-linejoin="round"/>
<path d="M3.28126 10.2081C4.53141 9.82694 5.47728 8.78609 6.14059 7.66031C6.8039 6.53453 7.24745 5.29162 7.88702 4.15176C8.09269 3.78508 8.32131 3.42646 8.62036 3.13062C9.21727 2.53976 10.0947 2.23869 10.9255 2.36025C11.7566 2.4814 12.5181 3.03 12.8776 3.78911C13.1259 4.31356 13.1835 4.90804 13.1847 5.48844C13.1867 6.36347 13.0704 7.23366 12.954 8.10104C12.9569 7.14632 12.9403 6.56069 12.752 5.62489C12.6465 5.10164 12.5077 4.57478 12.2231 4.12358C11.9385 3.67238 11.4869 3.30088 10.9585 3.22521C10.3443 3.13706 9.73045 3.46188 9.30863 3.9167C8.88682 4.37152 8.62077 4.94507 8.3519 5.50414C8.08303 6.06321 7.79565 6.62992 7.34405 7.05536C6.77492 7.59188 5.99006 7.8531 5.21163 7.92636C4.4328 7.99961 3.64955 7.9006 2.87354 7.80158" stroke="#1D1D1B" stroke-width="0.684242" stroke-linecap="round" stroke-linejoin="round"/>
<path d="M23.9799 0.0201416H0.0201416V23.9799H23.9799V0.0201416Z" stroke="#1D1D1B" stroke-width="0.0402495" stroke-linecap="round" stroke-linejoin="round"/>
</g>
<defs>
<clipPath id="clip0_532_139">
<rect width="24" height="24" fill="white"/>
</clipPath>
</defs>
</svg>
