<svg width="24" height="24" viewBox="0 0 24 24" fill="none" xmlns="http://www.w3.org/2000/svg">
<g clip-path="url(#clip0_532_264)">
<path d="M4.69638 12.7009C5.28323 12.7009 5.75897 12.2251 5.75897 11.6383C5.75897 11.0514 5.28323 10.5757 4.69638 10.5757C4.10953 10.5757 3.63379 11.0514 3.63379 11.6383C3.63379 12.2251 4.10953 12.7009 4.69638 12.7009Z" fill="#1D1D1B" stroke="#1D1D1B" stroke-width="0.563494" stroke-linecap="round" stroke-linejoin="round"/>
<path d="M5.42929 15.8676C6.01614 15.8676 6.49187 15.3919 6.49187 14.805C6.49187 14.2182 6.01614 13.7424 5.42929 13.7424C4.84244 13.7424 4.3667 14.2182 4.3667 14.805C4.3667 15.3919 4.84244 15.8676 5.42929 15.8676Z" fill="#1D1D1B" stroke="#1D1D1B" stroke-width="0.120749" stroke-linecap="round" stroke-linejoin="round"/>
<path opacity="0.81" d="M7.55441 18.3598C8.14126 18.3598 8.617 17.8841 8.617 17.2972C8.617 16.7104 8.14126 16.2346 7.55441 16.2346C6.96756 16.2346 6.49182 16.7104 6.49182 17.2972C6.49182 17.8841 6.96756 18.3598 7.55441 18.3598Z" fill="#1D1D1B" stroke="#1D1D1B" stroke-width="0.120749" stroke-linecap="round" stroke-linejoin="round"/>
<path opacity="0.73" d="M10.443 19.67C10.9772 19.67 11.4102 19.237 11.4102 18.7028C11.4102 18.1686 10.9772 17.7356 10.443 17.7356C9.90886 17.7356 9.47583 18.1686 9.47583 18.7028C9.47583 19.237 9.90886 19.67 10.443 19.67Z" fill="#1D1D1B" stroke="#1D1D1B" stroke-width="0.120749" stroke-linecap="round" stroke-linejoin="round"/>
<path opacity="0.65" d="M13.5638 19.5492C14.0397 19.5492 14.4255 19.1634 14.4255 18.6874C14.4255 18.2115 14.0397 17.8257 13.5638 17.8257C13.0878 17.8257 12.702 18.2115 12.702 18.6874C12.702 19.1634 13.0878 19.5492 13.5638 19.5492Z" fill="#1D1D1B" stroke="#1D1D1B" stroke-width="0.120749" stroke-linecap="round" stroke-linejoin="round"/>
<path opacity="0.59" d="M16.489 18.1591C16.9082 18.1591 17.2481 17.8192 17.2481 17.4C17.2481 16.9807 16.9082 16.6409 16.489 16.6409C16.0697 16.6409 15.7299 16.9807 15.7299 17.4C15.7299 17.8192 16.0697 18.1591 16.489 18.1591Z" fill="#1D1D1B" stroke="#1D1D1B" stroke-width="0.120749" stroke-linecap="round" stroke-linejoin="round"/>
<path opacity="0.54" d="M18.4105 15.5234C18.7702 15.5234 19.0618 15.2319 19.0618 14.8722C19.0618 14.5125 18.7702 14.2209 18.4105 14.2209C18.0508 14.2209 17.7593 14.5125 17.7593 14.8722C17.7593 15.2319 18.0508 15.5234 18.4105 15.5234Z" fill="#1D1D1B" stroke="#1D1D1B" stroke-width="0.120749" stroke-linecap="round" stroke-linejoin="round"/>
<path opacity="0.39" d="M18.4106 9.11935C18.7194 9.11935 18.9697 8.86905 18.9697 8.56029C18.9697 8.25152 18.7194 8.00122 18.4106 8.00122C18.1019 8.00122 17.8516 8.25152 17.8516 8.56029C17.8516 8.86905 18.1019 9.11935 18.4106 9.11935Z" fill="#1D1D1B" stroke="#1D1D1B" stroke-width="0.120749" stroke-linecap="round" stroke-linejoin="round"/>
<path opacity="0.34" d="M16.489 6.5344C16.7402 6.5344 16.9438 6.33077 16.9438 6.07958C16.9438 5.82839 16.7402 5.62476 16.489 5.62476C16.2378 5.62476 16.0342 5.82839 16.0342 6.07958C16.0342 6.33077 16.2378 6.5344 16.489 6.5344Z" fill="#1D1D1B" stroke="#1D1D1B" stroke-width="0.120749" stroke-linecap="round" stroke-linejoin="round"/>
<path opacity="0.29" d="M13.6087 5.03798C13.8126 5.03798 13.9778 4.87273 13.9778 4.66889C13.9778 4.46505 13.8126 4.2998 13.6087 4.2998C13.4049 4.2998 13.2396 4.46505 13.2396 4.66889C13.2396 4.87273 13.4049 5.03798 13.6087 5.03798Z" fill="#1D1D1B" stroke="#1D1D1B" stroke-width="0.120749" stroke-linecap="round" stroke-linejoin="round"/>
<path opacity="0.22" d="M10.3728 4.99817C10.5268 4.99817 10.6517 4.87329 10.6517 4.71924C10.6517 4.56519 10.5268 4.44031 10.3728 4.44031C10.2188 4.44031 10.0939 4.56519 10.0939 4.71924C10.0939 4.87329 10.2188 4.99817 10.3728 4.99817Z" fill="#1D1D1B" stroke="#1D1D1B" stroke-width="0.120749" stroke-linecap="round" stroke-linejoin="round"/>
<path opacity="0.17" d="M7.5327 6.27779C7.60961 6.27779 7.67196 6.21544 7.67196 6.13853C7.67196 6.06162 7.60961 5.99927 7.5327 5.99927C7.45578 5.99927 7.39343 6.06162 7.39343 6.13853C7.39343 6.21544 7.45578 6.27779 7.5327 6.27779Z" fill="#1D1D1B" stroke="#1D1D1B" stroke-width="0.120749" stroke-linecap="round" stroke-linejoin="round"/>
<path opacity="0.49" d="M19.1117 12.1972C19.4204 12.1972 19.6707 11.9469 19.6707 11.6382C19.6707 11.3294 19.4204 11.0791 19.1117 11.0791C18.8029 11.0791 18.5526 11.3294 18.5526 11.6382C18.5526 11.9469 18.8029 12.1972 19.1117 12.1972Z" fill="#1D1D1B" stroke="#1D1D1B" stroke-width="0.120749" stroke-linecap="round" stroke-linejoin="round"/>
<path d="M23.9799 0.0201416H0.0201416V23.9799H23.9799V0.0201416Z" stroke="#1D1D1B" stroke-width="0.0402495" stroke-linecap="round" stroke-linejoin="round"/>
</g>
<defs>
<clipPath id="clip0_532_264">
<rect width="24" height="24" fill="white"/>
</clipPath>
</defs>
</svg>
