<svg width="24" height="24" viewBox="0 0 24 24" fill="none" xmlns="http://www.w3.org/2000/svg">
<g clip-path="url(#clip0_532_170)">
<path d="M4.77649 6.85083L12.0468 3.67072L19.1899 6.85083C19.1899 6.85083 19.4032 14.3562 18.7636 15.55C18.124 16.7438 16.8872 18.4069 14.7978 19.3451C12.7085 20.2833 12.0005 20.5389 12.0005 20.5389C12.0005 20.5389 8.99826 19.3874 8.06045 18.7051C7.12223 18.0229 5.16087 15.9758 4.99021 14.2704C4.81956 12.5647 4.77689 6.85043 4.77689 6.85043L4.77649 6.85083Z" stroke="#1D1D1B" stroke-width="1.65023" stroke-linecap="round" stroke-linejoin="round"/>
<path d="M8.44482 11.5633L11.317 15.1419L15.5549 9.06824" stroke="#1D1D1B" stroke-width="1.65023" stroke-linecap="round" stroke-linejoin="round"/>
<path d="M23.9799 0.0201416H0.0201416V23.9799H23.9799V0.0201416Z" stroke="#1D1D1B" stroke-width="0.0402495" stroke-linecap="round" stroke-linejoin="round"/>
</g>
<defs>
<clipPath id="clip0_532_170">
<rect width="24" height="24" fill="white"/>
</clipPath>
</defs>
</svg>
