<svg width="24" height="24" viewBox="0 0 24 24" fill="none" xmlns="http://www.w3.org/2000/svg">
<g clip-path="url(#clip0_532_218)">
<path d="M16.8988 1.82776H7.83458C7.33509 1.82776 6.93018 2.23268 6.93018 2.73217V20.8416C6.93018 21.3411 7.33509 21.7461 7.83458 21.7461H16.8988C17.3983 21.7461 17.8032 21.3411 17.8032 20.8416V2.73217C17.8032 2.23268 17.3983 1.82776 16.8988 1.82776Z" stroke="#1D1D1B" stroke-width="0.563494" stroke-linecap="round" stroke-linejoin="round"/>
<path d="M15.6449 2.99866H8.96593C8.46644 2.99866 8.06152 3.40357 8.06152 3.90306V19.6237C8.06152 20.1232 8.46644 20.5281 8.96593 20.5281H15.6449C16.1444 20.5281 16.5493 20.1232 16.5493 19.6237V3.90306C16.5493 3.40357 16.1444 2.99866 15.6449 2.99866Z" stroke="#1D1D1B" stroke-width="0.563494" stroke-linecap="round" stroke-linejoin="round"/>
<path d="M13.7582 3.26385H10.9749C10.8847 3.26385 10.8115 3.33702 10.8115 3.42727V3.54238C10.8115 3.63263 10.8847 3.7058 10.9749 3.7058H13.7582C13.8484 3.7058 13.9216 3.63263 13.9216 3.54238V3.42727C13.9216 3.33702 13.8484 3.26385 13.7582 3.26385Z" fill="#1D1D1B"/>
<path d="M13.7586 3.30407C13.8266 3.30407 13.8817 3.35921 13.8817 3.42723V3.54235C13.8817 3.61037 13.8266 3.66551 13.7586 3.66551H10.9749C10.9069 3.66551 10.8517 3.61037 10.8517 3.54235V3.42723C10.8517 3.35921 10.9069 3.30407 10.9749 3.30407H13.7586ZM13.7586 3.22357H10.9749C10.8626 3.22357 10.7712 3.31494 10.7712 3.42723V3.54235C10.7712 3.65464 10.8626 3.74601 10.9749 3.74601H13.7586C13.8709 3.74601 13.9622 3.65464 13.9622 3.54235V3.42723C13.9622 3.31494 13.8709 3.22357 13.7586 3.22357Z" fill="#1D1D1B"/>
<path d="M23.9799 0.0201416H0.0201416V23.9799H23.9799V0.0201416Z" stroke="#1D1D1B" stroke-width="0.0402495" stroke-linecap="round" stroke-linejoin="round"/>
</g>
<defs>
<clipPath id="clip0_532_218">
<rect width="24" height="24" fill="white"/>
</clipPath>
</defs>
</svg>
