<svg width="24" height="24" viewBox="0 0 24 24" fill="none" xmlns="http://www.w3.org/2000/svg">
<g clip-path="url(#clip0_532_196)">
<path d="M12.4206 22.0311C17.6763 22.0311 21.9368 17.7705 21.9368 12.5149C21.9368 7.2592 17.6763 2.99866 12.4206 2.99866C7.16497 2.99866 2.90442 7.2592 2.90442 12.5149C2.90442 17.7705 7.16497 22.0311 12.4206 22.0311Z" stroke="#1D1D1B" stroke-width="0.764741" stroke-linecap="round" stroke-linejoin="round"/>
<path d="M12.4206 15.8443C17.5722 15.8443 21.7484 14.3537 21.7484 12.5149C21.7484 10.6761 17.5722 9.18542 12.4206 9.18542C7.26899 9.18542 3.09277 10.6761 3.09277 12.5149C3.09277 14.3537 7.26899 15.8443 12.4206 15.8443Z" stroke="#1D1D1B" stroke-width="0.764741" stroke-linecap="round" stroke-linejoin="round"/>
<path d="M12.4205 21.746C14.1197 21.746 15.4972 17.5698 15.4972 12.4182C15.4972 7.26654 14.1197 3.09033 12.4205 3.09033C10.7213 3.09033 9.34387 7.26654 9.34387 12.4182C9.34387 17.5698 10.7213 21.746 12.4205 21.746Z" stroke="#1D1D1B" stroke-width="0.764741" stroke-linecap="round" stroke-linejoin="round"/>
<path d="M12.4207 2.99866V22.0315" stroke="#1D1D1B" stroke-width="0.764741" stroke-linecap="round" stroke-linejoin="round"/>
<path d="M23.9799 0.0201416H0.0201416V23.9799H23.9799V0.0201416Z" stroke="#1D1D1B" stroke-width="0.0402495" stroke-linecap="round" stroke-linejoin="round"/>
</g>
<defs>
<clipPath id="clip0_532_196">
<rect width="24" height="24" fill="white"/>
</clipPath>
</defs>
</svg>
